<?xml version="1.0" encoding="UTF-8" standalone="no"?><!DOCTYPE svg PUBLIC "-//W3C//DTD SVG 1.1//EN" "http://www.w3.org/Graphics/SVG/1.1/DTD/svg11.dtd"><svg width="100%" height="100%" viewBox="0 0 2481 3508" version="1.1" xmlns="http://www.w3.org/2000/svg" xmlns:xlink="http://www.w3.org/1999/xlink" xml:space="preserve" xmlns:serif="http://www.serif.com/" style="fill-rule:evenodd;clip-rule:evenodd;stroke-linejoin:round;stroke-miterlimit:2;"><rect id="Artboard2" x="0" y="0" width="2480.317" height="3507.875" style="fill:none;"/><path d="M447.643,978.138l-447.641,774.777l-0.002,0.2l447.843,775.309l1584.628,-0.276l447.647,-775.375l0.001,-0.1l-447.948,-774.711l-1584.527,0.177Z" style="fill:url(#_Linear1);fill-rule:nonzero;"/><path d="M1999.872,1737.471l-536.195,0.05l-4.957,-3.641l-405.511,-234.124l-22.515,5.579l6.273,23.02l361.918,209.255l-918.152,0.153c-5.583,-170.665 -100.914,-320.21 -239.824,-400.483l-84.019,144.465c93.432,54.188 156.974,155.117 156.983,271.021c0.004,116.404 -63.54,217.335 -156.892,271.464l-0.001,0.1l83.992,145.046c139.028,-80.954 234.27,-229.906 239.873,-401.164l918.051,-0.054l-361.955,208.739l-6.206,23.003l22.504,6.201l405.416,-233.588l5.033,-4.445l536.295,-0.049c4.984,170.659 100.315,320.204 239.824,400.483l83.42,-144.471c-92.833,-54.183 -156.375,-155.111 -156.378,-271.614c-0.015,-115.206 63.534,-216.736 156.288,-270.971l-83.399,-144.442c-139.621,80.349 -234.868,229.8 -239.867,400.465Z" style="fill:url(#_Linear2);fill-rule:nonzero;"/><g><clipPath id="_clip3"><path d="M446.048,978.282l-447.742,774.875l447.941,775.41l1584.627,-0.176l447.747,-775.474l-448.047,-774.812l-1584.527,0.177Z" clip-rule="nonzero"/></clipPath><g clip-path="url(#_clip3)"><path d="M1963.341,2452.693l-8.063,8.11l8.11,8.063l11.081,0.004l0.052,-16.172l-11.181,-0.005Zm11.181,-10.577l0.023,-23.66l11.181,0.005l0.026,60.997l-23.061,-0.017c-12.48,0.082 -18.698,-7.463 -18.693,-18.645c0.005,-11.181 6.266,-18.709 18.744,-18.692l11.78,0.011Z" style="fill:#ef454d;fill-rule:nonzero;"/><path d="M1907.695,2469.69l12.426,-4.975l4.939,-15.627l-4.945,-15.52l-12.426,-5.608l-12.432,5.574l-5.039,15.626l5.045,15.521l12.432,5.009Zm0,10.582c-10.582,0 -19.326,-4.375 -24.929,-13.712l-3.73,-17.406c0.03,-13.776 6.213,-23.701 14.34,-28.018l14.306,-3.16c10.582,-0 19.232,3.775 24.929,13.712l3.73,17.406c-0.023,13.078 -5.614,23.707 -14.34,28.018l-14.306,3.16Z" style="fill:#ef454d;fill-rule:nonzero;"/><path d="M1841.469,2463.167l8.727,6.172l5.543,-5.538l-9.302,-8.773c-6.86,-3.059 -16.796,-8.045 -16.796,-18.627c0.012,-11.88 7.463,-18.698 19.244,-18.687l14.329,4.927l6.877,11.845l-8.744,6.207c-2.514,-8.709 -6.771,-12.443 -12.462,-12.396l-8.056,7.412l9.302,8.773c7.459,3.065 16.802,7.446 16.191,19.32l-4.298,11.141l-11.827,4.98c-8.686,0.018 -14.342,-3.629 -18.064,-11.151l9.337,-5.603Z" style="fill:#ef454d;fill-rule:nonzero;"/><path d="M1817.862,2418.201l-11.281,0.005l0.026,60.986l11.281,-0.005l-0.026,-60.986Z" style="fill:#ef454d;"/><path d="M1795.392,2468.964l0,10.582l-45.523,-0.029l-0,-10.582l17.47,0.064l-0.024,-50.515l11.181,0.005l0.024,50.515l16.872,-0.041Z" style="fill:#ef454d;fill-rule:nonzero;"/><path d="M1716.504,2455.214l-7.452,6.818l7.423,6.858l11.181,0.005l0.029,-13.677l-11.181,-0.005Zm-6.9,-9.349l-17.412,-27.418l13.078,0.023l16.227,26.109l6.189,0.058l-0.054,-26.156l11.281,0.006l0.026,60.997l-22.462,-0.012c-11.78,-0.011 -18.704,-6.865 -18.704,-17.447l11.832,-16.161Z" style="fill:#ef454d;fill-rule:nonzero;"/><path d="M1658.416,2469.722l12.426,-4.975l4.939,-15.627l-4.945,-15.52l-12.426,-5.608l-12.432,5.574l-5.039,15.626l5.045,15.521l12.432,5.009Zm0,10.582c-10.582,0 -19.326,-4.375 -24.929,-13.712l-3.73,-17.406c0.03,-13.776 5.614,-23.707 14.34,-28.018l14.306,-3.16c10.582,-0 19.232,3.775 24.929,13.712l3.73,17.406c-0.023,13.078 -5.614,23.707 -14.34,28.018l-14.306,3.16Z" style="fill:#ef454d;fill-rule:nonzero;"/><path d="M1583.49,2479.47l-11.181,-0.005l-0.026,-60.997l11.781,-0.089l22.48,40.543l-0.018,-40.532l11.181,0.005l0.025,61.097l-11.88,-0.012l-22.38,-40.542l0.018,40.532Z" style="fill:#ef454d;fill-rule:nonzero;"/><path d="M490.794,1026.942l37.936,-0.043l0,10.582l-26.755,0.048l-0.017,12.479l21.164,-0.001l0,10.582l-21.164,0.001l0.042,16.772l27.353,0.058l0,10.582l-38.534,-0.063l-0.026,-60.997Z" style="fill:#f7acb5;fill-rule:nonzero;"/><path d="M541.389,1026.928l11.181,0.005l0.025,50.415l26.155,0.046l0,10.582l-37.336,-0.052l-0.026,-60.997Z" style="fill:#f7acb5;fill-rule:nonzero;"/><path d="M590.396,1026.92l37.936,-0.043l0,10.582l-26.755,0.048l-0.017,12.479l21.164,-0.001l0,10.582l-21.164,0.001l0.042,16.772l27.353,0.058l0,10.582l-38.534,-0.063l-0.026,-60.997Z" style="fill:#f7acb5;fill-rule:nonzero;"/><path d="M681.33,1047.351l-14.975,-10.623l-12.432,5.673l-4.932,14.928l4.945,15.52l12.426,5.608l14.98,-11.14l9.954,3.089c-2.507,11.856 -11.85,18.058 -24.928,18.035l-20.589,-8.08c-5.538,-5.643 -8.662,-13.06 -8.668,-23.043c-0.012,-9.384 3.059,-17.442 8.703,-23.079l20.542,-8.093c13.078,0.023 22.397,6.899 24.982,18.704l-10.007,2.502Z" style="fill:#f7acb5;fill-rule:nonzero;"/><path d="M697.596,1037.441l-0,-10.582l45.424,-0.072l-0.001,10.682l-17.37,-0.063l-0.076,50.514l-11.181,-0.005l-0.024,-50.515l-16.772,0.042Z" style="fill:#f7acb5;fill-rule:nonzero;"/><path d="M776.364,1051.19l6.853,-6.824l-6.824,-6.853l-11.281,-0.006l0.071,13.678l11.181,0.005Zm6.8,9.348l17.412,27.418l-13.078,-0.023l-16.127,-26.108l-6.189,-0.058l-0.046,26.155l-11.181,-0.005l-0.026,-60.997l22.462,0.012c11.78,0.011 18.605,6.764 18.604,17.446l-11.832,16.161Z" style="fill:#f7acb5;fill-rule:nonzero;"/><path d="M834.423,1036.661l-12.426,4.975l-5.038,15.526l5.044,15.621l12.426,5.608l12.432,-5.574l4.939,-15.627l-4.945,-15.52l-12.432,-5.009Zm-0,-10.582c10.582,-0 19.226,4.374 24.929,13.712l3.73,17.406c-0.029,13.677 -6.213,23.701 -14.34,28.018l-14.306,3.16c-10.582,0 -19.332,-3.776 -24.929,-13.712l-3.73,-17.406c0.023,-13.078 5.614,-23.707 14.341,-28.117l14.305,-3.06Z" style="fill:#f7acb5;fill-rule:nonzero;"/><path d="M909.428,1026.884l11.181,0.005l0.026,60.997l-11.88,-0.012l-22.381,-40.443l0.018,40.532l-11.281,-0.006l-0.025,-61.097l11.88,0.012l22.481,40.443l-0.019,-40.432Z" style="fill:#f7acb5;fill-rule:nonzero;"/><path d="M535.686,2113.43l-9.948,17.477l37.337,-0.048l-0.035,-6.889l-3.677,-12.414l-10.641,-4.393l-13.037,6.267Zm-14.352,39.897l0.042,6.19l3.735,16.807l11.223,6.195l11.821,-4.381l10.611,-13.677l22.345,12.489c-5.591,10.629 -12.455,18.651 -20.483,23.068c-7.534,4.921 -16.842,7.429 -27.424,7.429c-13.078,-0.023 -23.719,-4.316 -31.13,-12.472c-6.907,-8.65 -10.595,-19.866 -10.66,-34.243c0.041,-14.974 2.56,-28.029 7.463,-39.862c5.608,-12.426 12.484,-21.746 21.833,-28.646c9.348,-6.8 19.267,-10.601 30.548,-10.594c13.677,0.029 23.625,3.716 30.542,11.269c7.417,7.457 10.513,17.969 10.483,31.745c0.018,8.686 -1.174,18.657 -4.268,29.211l-66.682,-0.527Z" style="fill:#f7acb5;fill-rule:nonzero;"/><path d="M649.973,2087.94l-0.005,-14.944l-37.991,0.012l0.005,14.944l37.991,-0.012Z" style="fill:#f7acb5;"/><path d="M608.995,1393.226l9.948,-17.477l-37.337,0.048l-0.064,6.788l3.776,12.514l10.542,4.292l13.136,-6.166Zm14.252,-39.898l0.657,-6.183l-4.334,-16.812l-11.222,-6.295l-11.821,4.381l-10.612,13.777l-22.444,-12.49c5.591,-10.629 12.456,-18.751 20.582,-23.067c7.435,-5.022 16.842,-7.429 27.424,-7.429c13.079,-0.077 23.619,4.315 31.131,12.372c6.806,8.749 10.594,19.966 10.56,34.242c0.059,14.975 -2.461,28.129 -7.463,39.862c-5.608,12.526 -12.485,21.846 -21.734,28.747c-9.348,6.8 -19.367,10.6 -30.548,10.594c-13.776,-0.03 -23.724,-3.817 -30.542,-11.269c-7.517,-7.458 -10.612,-18.069 -10.583,-31.746c-0.018,-8.686 1.274,-18.657 4.369,-29.309l66.582,0.626Z" style="fill:#f7acb5;fill-rule:nonzero;"/><path d="M494.787,1418.788l0.005,14.944l37.991,-0.012l-0.005,-14.944l-37.991,0.012Z" style="fill:#f7acb5;"/><path d="M1943.924,1393.049l9.948,-17.477l-37.337,0.048l-0.064,6.788l3.776,12.514l10.542,4.292l13.136,-6.166Zm14.252,-39.898l0.657,-6.183l-4.334,-16.812l-11.222,-6.295l-11.821,4.381l-10.612,13.777l-22.444,-12.49c5.591,-10.629 12.456,-18.751 20.582,-23.067c7.435,-5.022 16.842,-7.429 27.424,-7.429c13.079,-0.077 23.619,4.315 31.131,12.372c6.806,8.749 10.594,19.966 10.56,34.242c0.059,14.975 -2.461,28.129 -7.463,39.862c-5.608,12.526 -12.485,21.846 -21.734,28.747c-9.348,6.8 -19.367,10.6 -30.548,10.594c-13.776,-0.03 -23.724,-3.817 -30.542,-11.269c-7.517,-7.458 -10.612,-18.069 -10.583,-31.746c-0.018,-8.686 1.274,-18.657 4.369,-29.309l66.582,0.626Z" style="fill:#ef454d;fill-rule:nonzero;"/><path d="M1851.43,1418.465l18.669,-0.024l-2.537,14.951l-19.268,0.019l-3.787,20.53l-14.875,0.06l3.688,-20.63l-18.669,0.024l3.135,-14.945l18.669,-0.024l3.787,-20.53l14.875,0.04l-3.687,20.531Z" style="fill:#ef454d;fill-rule:nonzero;"/><path d="M1860.232,2113.245l-9.948,17.477l37.337,-0.048l-0.035,-6.889l-3.677,-12.414l-10.641,-4.393l-13.037,6.267Zm-14.352,39.897l-0.657,6.183l4.434,16.813l11.223,6.195l11.82,-4.281l10.612,-13.777l22.444,12.49c-5.69,10.628 -12.554,18.65 -20.582,23.067c-7.534,4.921 -16.842,7.429 -27.424,7.429c-13.078,-0.023 -23.719,-4.316 -31.13,-12.472c-6.907,-8.65 -10.595,-19.866 -10.66,-34.243c0.041,-14.974 2.56,-28.029 7.463,-39.862c5.608,-12.426 12.484,-21.746 21.833,-28.646c9.348,-6.8 19.267,-10.601 30.548,-10.594c13.677,0.029 23.625,3.716 30.542,11.269c7.417,7.457 10.513,17.969 10.483,31.745c0.018,8.686 -1.174,18.657 -4.268,29.211l-66.682,-0.527Z" style="fill:#ef454d;fill-rule:nonzero;"/><path d="M1952.645,2087.898l-18.669,0.024l2.437,-14.952l19.268,-0.019l3.787,-20.53l14.975,-0.059l-3.787,20.53l18.668,0.076l-3.036,14.946l-18.669,0.024l-3.787,20.53l-14.974,-0.041l3.787,-20.53Z" style="fill:#ef454d;fill-rule:nonzero;"/></g></g><defs><linearGradient id="_Linear1" x1="0" y1="0" x2="1" y2="0" gradientUnits="userSpaceOnUse" gradientTransform="matrix(-2480.194927,0.341258,-0.341258,-2480.194927,2480.146214,1753.002707)"><stop offset="0" style="stop-color:#f7acb5;stop-opacity:1"/><stop offset="0.3" style="stop-color:#f7acb5;stop-opacity:1"/><stop offset="1" style="stop-color:#ef444d;stop-opacity:1"/></linearGradient><linearGradient id="_Linear2" x1="0" y1="0" x2="1" y2="0" gradientUnits="userSpaceOnUse" gradientTransform="matrix(3441.192359,-0.473488,0.473488,3441.192359,-480.415333,1753.412225)"><stop offset="0" style="stop-color:#f7acb5;stop-opacity:1"/><stop offset="0.44" style="stop-color:#f7acb5;stop-opacity:1"/><stop offset="0.63" style="stop-color:#ef444d;stop-opacity:1"/><stop offset="1" style="stop-color:#ef444d;stop-opacity:1"/></linearGradient></defs></svg>