<?xml version="1.0" encoding="UTF-8" standalone="no"?><!DOCTYPE svg PUBLIC "-//W3C//DTD SVG 1.1//EN" "http://www.w3.org/Graphics/SVG/1.1/DTD/svg11.dtd"><svg width="100%" height="100%" viewBox="0 0 2481 3508" version="1.1" xmlns="http://www.w3.org/2000/svg" xmlns:xlink="http://www.w3.org/1999/xlink" xml:space="preserve" xmlns:serif="http://www.serif.com/" style="fill-rule:evenodd;clip-rule:evenodd;stroke-linejoin:round;stroke-miterlimit:2;"><rect id="Artboard5" x="0" y="0" width="2480.317" height="3507.875" style="fill:none;"/><clipPath id="_clip1"><rect x="0" y="0" width="2480.317" height="3507.875"/></clipPath><g clip-path="url(#_clip1)"><path d="M440.45,925.633l-440.45,779.073l455.225,770.488l1585.101,-15.074l439.851,-779.073l-454.626,-770.488l-1585.101,15.074Z" style="fill:#302f87;fill-rule:nonzero;"/><g><clipPath id="_clip2"><path d="M439.991,925.533l-439.751,779.173l454.626,771.187l1585.7,-15.174l439.751,-779.772l-454.526,-770.488l-1585.8,15.074Z" clip-rule="nonzero"/></clipPath><g clip-path="url(#_clip2)"><path d="M2475.595,1200.665l1.597,166.916c43.526,-0.399 84.756,8.486 122.292,23.76c56.304,23.061 104.622,62.494 138.764,112.009c34.042,50.115 54.607,109.713 55.206,174.503c0.399,43.626 -7.887,84.856 -23.76,122.292c-23.161,56.304 -62.494,104.722 -112.009,138.764c-49.516,34.741 -109.114,54.607 -174.503,55.206c-43.626,0.499 -84.856,-7.887 -122.392,-23.061c-56.204,-23.161 -104.622,-62.593 -138.664,-112.708c-34.142,-49.516 -54.607,-109.114 -55.306,-174.503c-0.399,-42.927 7.986,-84.157 23.859,-121.693c23.061,-56.903 62.494,-104.622 112.009,-139.363c49.516,-34.042 109.114,-54.607 174.503,-55.206l-1.597,-166.916c-65.988,0 -129.48,14.276 -186.482,39.133c-86.253,37.536 -159.129,99.331 -210.142,176.4c-50.913,77.169 -80.563,170.21 -79.664,269.242c0.599,65.988 14.975,129.38 39.832,187.081c37.536,85.654 98.632,158.53 175.801,209.543c77.069,50.913 170.709,80.563 269.841,79.664c65.988,-0.699 129.38,-14.975 186.482,-39.832c86.153,-36.937 159.129,-98.632 210.042,-175.801c51.013,-77.069 80.663,-170.11 79.664,-269.841c-0.599,-65.988 -14.875,-129.38 -39.732,-186.482c-37.636,-86.253 -98.732,-158.53 -175.801,-210.142c-77.169,-50.913 -170.809,-80.563 -269.841,-78.966Z" style="fill:#ef454d;fill-rule:nonzero;"/><path d="M5.031,2185.109l-1.597,-166.916c-43.626,0.399 -84.157,-8.585 -122.292,-23.76c-56.304,-23.161 -104.622,-62.494 -138.764,-112.009c-34.142,-50.115 -54.607,-109.813 -55.206,-174.503c-0.499,-43.626 7.887,-84.856 23.76,-122.392c23.061,-56.204 62.494,-104.622 112.009,-138.664c49.516,-34.741 109.713,-54.607 174.503,-55.306c43.626,-0.399 84.756,7.986 122.292,23.161c56.304,23.161 104.622,62.494 138.764,112.708c34.042,49.516 54.607,109.114 55.206,174.503c0.399,42.927 -7.887,84.157 -23.76,121.693c-23.061,56.903 -62.494,104.622 -112.009,139.363c-49.516,34.042 -109.114,54.607 -174.503,55.206l1.597,166.916c65.988,0 129.38,-14.276 186.482,-39.133c86.253,-37.636 159.129,-99.331 210.042,-176.4c51.013,-77.169 80.663,-170.21 79.664,-269.242c-0.599,-66.087 -14.875,-129.48 -39.732,-187.181c-37.536,-86.153 -98.632,-158.43 -175.801,-209.443c-77.069,-51.013 -170.809,-80.563 -269.841,-79.664c-65.988,0.599 -129.38,14.975 -186.482,39.832c-86.253,36.937 -159.129,98.632 -210.142,175.801c-50.913,77.069 -80.563,170.11 -79.664,269.841c0.699,65.988 14.975,129.38 39.832,186.482c37.536,86.153 98.632,158.53 175.801,210.042c77.069,51.013 170.809,80.663 269.841,79.065Z" style="fill:#ef454d;fill-rule:nonzero;"/><path d="M587.789,1608.56l0.2,28.651c14.975,-0.1 28.152,5.391 37.536,15.274c10.083,9.184 15.773,22.262 15.873,37.237c0.2,14.276 -5.291,27.453 -15.174,37.536c-9.184,9.384 -22.262,15.773 -37.237,15.873c-14.276,0.1 -28.052,-5.99 -37.536,-15.174c-9.983,-9.883 -15.773,-22.961 -15.873,-37.237c-0.1,-14.975 5.291,-28.052 15.174,-37.536c9.284,-10.083 22.961,-15.773 37.237,-15.973l-0.2,-28.651c-44.924,0.499 -81.262,37.536 -80.862,82.36c0.399,44.924 37.536,80.663 82.36,80.263c44.824,-0.499 81.262,-36.937 80.862,-81.761c-0.499,-44.824 -37.536,-81.262 -82.36,-80.862Z" style="fill:#ef454d;fill-rule:nonzero;"/><path d="M771.816,1606.803l0.2,28.651c14.376,-0.1 28.152,5.391 37.536,15.274c10.083,9.184 15.773,22.262 15.873,37.237c0.2,14.276 -5.291,27.453 -15.174,37.536c-9.184,9.384 -22.861,15.773 -37.137,15.873c-15.074,0.2 -28.152,-5.99 -37.636,-15.174c-9.983,-9.883 -15.773,-22.961 -15.873,-37.237c-0.1,-14.975 5.291,-28.052 15.174,-37.536c9.284,-10.083 22.262,-15.773 37.237,-15.973l-0.2,-28.651c-44.924,0.499 -81.262,37.536 -80.862,82.36c0.399,44.924 37.536,80.663 82.36,80.263c44.824,-0.499 81.262,-36.937 80.862,-81.761c-0.499,-44.824 -37.536,-81.262 -82.36,-80.862Z" style="fill:#ef454d;fill-rule:nonzero;"/><path d="M691.303,1699.496c0.2,16.172 -7.188,30.548 -20.765,41.929c-12.978,11.98 -32.245,18.968 -53.409,19.167c-20.565,0.2 -41.23,-8.985 -56.903,-22.462c-7.587,-6.788 -13.876,-14.875 -18.269,-23.56c-3.794,-7.986 -6.389,-16.073 -6.489,-24.159l-14.475,-13.577l-13.577,13.777c0.1,13.078 3.394,25.556 9.684,37.336c8.885,17.37 23.36,32.145 40.331,43.226c17.57,10.981 38.135,18.269 59.898,18.069c27.453,-0.2 52.91,-9.783 71.478,-26.155c19.068,-15.773 30.748,-38.335 30.548,-63.891l-13.876,-14.176l-14.176,14.475Z" style="fill:#ef454d;fill-rule:nonzero;"/><path d="M641.697,1699.965c0.2,16.172 -7.188,30.548 -20.765,41.929c-12.978,11.98 -32.245,18.968 -53.409,19.167c-20.565,0.2 -41.23,-8.885 -56.903,-22.462c-7.587,-6.788 -13.876,-14.875 -18.269,-23.56c-4.492,-7.986 -6.389,-16.073 -6.489,-24.159l-14.475,-13.577l-13.577,13.777c0.1,13.178 3.394,25.556 9.684,37.336c8.885,17.37 23.36,32.145 40.331,43.226c17.57,10.981 38.135,18.269 59.898,18.069c27.453,-0.2 52.91,-9.783 71.478,-26.155c19.068,-15.773 30.748,-38.335 30.548,-63.891l-13.876,-14.176l-14.176,14.475Z" style="fill:#ef454d;fill-rule:nonzero;"/><path d="M1994.504,1687.057c0.2,16.172 -7.188,30.548 -20.765,41.929c-12.978,11.98 -32.245,18.968 -53.409,19.167c-20.565,0.2 -41.23,-8.885 -56.903,-22.462c-7.587,-6.788 -13.876,-14.875 -18.269,-23.56c-4.492,-7.986 -6.389,-16.073 -6.489,-24.159l-14.475,-13.577l-13.577,13.777c0.1,13.178 3.394,25.556 9.684,37.336c8.885,17.37 23.36,32.145 40.331,43.226c17.57,10.981 38.135,18.269 59.898,18.069c27.453,-0.2 52.91,-9.783 71.478,-26.155c19.068,-15.773 30.748,-38.335 30.548,-63.891l-13.876,-14.176l-14.176,14.475Z" style="fill:#ef454d;fill-rule:nonzero;"/><path d="M771.816,1606.803l0.2,28.651c14.376,-0.1 28.152,5.391 37.536,15.274c10.083,9.184 15.773,22.262 15.873,37.237c0.2,14.276 -5.291,27.453 -15.174,37.536c-9.184,9.384 -22.861,15.773 -37.137,15.873c-15.074,0.2 -28.152,-5.99 -37.636,-15.174c-9.983,-9.883 -15.773,-22.961 -15.873,-37.237c-0.1,-14.975 5.291,-28.052 15.174,-37.536c9.284,-10.083 22.262,-15.773 37.237,-15.973l-0.2,-28.651c-44.924,0.499 -81.262,37.536 -80.862,82.36c0.399,44.924 37.536,80.663 82.36,80.263c44.824,-0.499 81.262,-36.937 80.862,-81.761c-0.499,-44.824 -37.536,-81.262 -82.36,-80.862Z" style="fill:#ef454d;fill-rule:nonzero;"/><path d="M955.813,1605.056l0.2,28.651c14.376,-0.1 28.152,5.391 37.536,15.274c10.083,9.184 15.773,22.262 15.873,37.237c0.2,14.276 -5.291,27.453 -15.174,37.536c-9.184,9.384 -22.861,15.773 -37.237,15.873c-14.975,0.2 -28.052,-5.99 -37.536,-15.174c-9.983,-9.883 -15.773,-22.961 -15.873,-37.237c-0.1,-14.975 5.291,-28.052 15.174,-37.536c9.284,-10.083 22.262,-15.773 37.237,-15.973l-0.2,-28.651c-44.924,0.499 -81.262,37.536 -80.862,82.36c0.399,44.924 37.536,80.663 82.36,80.263c44.824,-0.499 81.262,-36.937 80.862,-81.761c-0.499,-44.824 -37.536,-81.262 -82.36,-80.862Z" style="fill:#ef454d;fill-rule:nonzero;"/><path d="M875.379,1697.729c0.2,16.172 -7.188,30.548 -20.765,41.929c-12.978,11.98 -32.245,18.968 -53.409,19.167c-20.565,0.2 -41.23,-8.885 -56.903,-22.462c-7.587,-6.788 -13.876,-14.875 -18.269,-23.56c-4.492,-7.986 -6.389,-16.073 -6.489,-24.159l-14.475,-13.577l-14.176,13.777c0.1,13.178 3.993,25.556 10.282,37.336c8.885,17.37 23.36,32.145 40.331,43.226c17.57,10.981 38.135,18.269 59.898,18.069c27.453,-0.2 52.91,-9.783 71.478,-26.155c19.068,-15.773 30.748,-38.335 30.548,-63.891l-13.876,-14.176l-14.176,14.475Z" style="fill:#ef454d;fill-rule:nonzero;"/><path d="M955.813,1605.056l0.2,28.651c14.376,-0.1 28.152,5.391 37.536,15.274c10.083,9.184 15.773,22.262 15.873,37.237c0.2,14.276 -5.291,27.453 -15.174,37.536c-9.184,9.384 -22.861,15.773 -37.237,15.873c-14.975,0.2 -28.052,-5.99 -37.536,-15.174c-9.983,-9.883 -15.773,-22.961 -15.873,-37.237c-0.1,-14.975 5.291,-28.052 15.174,-37.536c9.284,-10.083 22.262,-15.773 37.237,-15.973l-0.2,-28.651c-44.924,0.499 -81.262,37.536 -80.862,82.36c0.399,44.924 37.536,80.663 82.36,80.263c44.824,-0.499 81.262,-36.937 80.862,-81.761c-0.499,-44.824 -37.536,-81.262 -82.36,-80.862Z" style="fill:#ef454d;fill-rule:nonzero;"/><path d="M1139.809,1603.299l0.2,28.651c14.975,-0.1 28.152,5.391 37.536,15.274c10.083,9.184 15.773,22.262 15.873,37.237c0.2,14.276 -5.291,27.453 -15.174,37.536c-9.184,9.384 -22.262,15.773 -37.237,15.873c-14.975,0.2 -28.052,-5.99 -37.536,-15.174c-9.983,-9.883 -15.773,-22.961 -15.873,-37.237c-0.1,-14.975 5.291,-28.152 15.174,-37.536c9.284,-10.083 22.262,-15.773 37.237,-15.973l-0.2,-28.651c-44.924,0.499 -81.262,37.536 -80.862,82.36c0.399,44.924 37.536,80.663 82.36,80.263c44.824,-0.499 81.262,-36.937 80.862,-81.761c-0.499,-44.824 -37.536,-81.262 -82.36,-80.862Z" style="fill:#ef454d;fill-rule:nonzero;"/><path d="M1059.366,1695.982c0.2,16.172 -7.188,30.548 -20.864,41.929c-12.878,11.98 -32.145,18.968 -53.309,19.167c-20.565,0.2 -41.23,-8.885 -56.903,-22.462c-7.587,-6.788 -13.876,-14.875 -18.269,-23.56c-4.492,-7.986 -6.389,-16.073 -6.489,-24.159l-14.475,-13.577l-13.577,13.777c0.1,13.178 3.394,25.556 9.684,37.336c8.885,17.37 23.36,32.145 40.331,43.226c17.57,10.981 38.135,18.269 59.898,18.069c27.453,-0.2 52.91,-9.783 71.478,-26.155c19.068,-15.773 30.748,-38.335 30.548,-63.891l-13.876,-14.176l-14.176,14.475Z" style="fill:#ef454d;fill-rule:nonzero;"/><path d="M1139.809,1603.299l0.2,28.651c14.975,-0.1 28.152,5.391 37.536,15.274c10.083,9.184 15.773,22.262 15.873,37.237c0.2,14.276 -5.291,27.453 -15.174,37.536c-9.184,9.384 -22.262,15.773 -37.237,15.873c-14.975,0.2 -28.052,-5.99 -37.536,-15.174c-9.983,-9.883 -15.773,-22.961 -15.873,-37.237c-0.1,-14.975 5.291,-28.152 15.174,-37.536c9.284,-10.083 22.262,-15.773 37.237,-15.973l-0.2,-28.651c-44.924,0.499 -81.262,37.536 -80.862,82.36c0.399,44.924 37.536,80.663 82.36,80.263c44.824,-0.499 81.262,-36.937 80.862,-81.761c-0.499,-44.824 -37.536,-81.262 -82.36,-80.862Z" style="fill:#ef454d;fill-rule:nonzero;"/><path d="M1323.806,1601.542l0.2,28.651c14.975,-0.1 28.152,5.391 37.536,15.274c10.083,9.184 15.773,22.262 15.873,37.237c0.2,14.276 -5.291,27.453 -15.174,37.536c-9.184,9.384 -22.262,15.773 -37.237,15.873c-14.276,0.1 -28.052,-5.99 -37.536,-15.174c-9.983,-9.883 -15.773,-22.961 -15.873,-37.237c-0.1,-14.975 5.291,-28.152 15.174,-37.536c9.284,-10.083 22.961,-15.773 37.237,-15.973l-0.2,-28.651c-44.924,0.499 -81.262,37.536 -80.862,82.36c0.399,44.924 37.536,80.663 82.36,80.263c44.824,-0.499 81.262,-36.937 80.862,-81.761c-0.499,-44.824 -37.536,-81.262 -82.36,-80.862Z" style="fill:#ef454d;fill-rule:nonzero;"/><path d="M1243.323,1694.225c0.2,16.172 -7.188,30.548 -20.765,41.929c-12.978,11.98 -32.245,18.968 -53.409,19.167c-20.565,0.2 -41.23,-8.885 -56.903,-22.462c-7.587,-6.788 -13.876,-14.875 -18.269,-23.56c-4.492,-7.986 -6.389,-16.073 -6.489,-24.159l-14.475,-13.577l-13.577,13.777c0.1,13.178 3.394,25.556 9.684,37.336c8.885,17.37 23.36,32.145 40.331,43.226c17.57,10.981 38.135,18.269 59.898,18.069c27.453,-0.2 52.91,-9.783 71.478,-26.155c19.068,-15.773 30.748,-38.335 30.548,-63.891l-13.876,-14.176l-14.176,14.475Z" style="fill:#ef454d;fill-rule:nonzero;"/><path d="M1323.806,1601.542l0.2,28.651c14.975,-0.1 28.152,5.391 37.536,15.274c10.083,9.184 15.773,22.262 15.873,37.237c0.2,14.276 -5.291,27.453 -15.174,37.536c-9.184,9.384 -22.262,15.773 -37.237,15.873c-14.276,0.1 -28.052,-5.99 -37.536,-15.174c-9.983,-9.883 -15.773,-22.961 -15.873,-37.237c-0.1,-14.975 5.291,-28.152 15.174,-37.536c9.284,-10.083 22.961,-15.773 37.237,-15.973l-0.2,-28.651c-44.924,0.499 -81.262,37.536 -80.862,82.36c0.399,44.924 37.536,80.663 82.36,80.263c44.824,-0.499 81.262,-36.937 80.862,-81.761c-0.499,-44.824 -37.536,-81.262 -82.36,-80.862Z" style="fill:#ef454d;fill-rule:nonzero;"/><path d="M1507.753,1599.785l0.2,28.651c14.975,-0.1 28.152,5.391 37.536,15.274c10.083,9.184 15.773,22.262 15.873,37.237c0.2,14.276 -5.291,27.453 -15.174,37.536c-9.184,9.384 -22.262,15.773 -37.237,15.873c-14.276,0.1 -28.052,-5.99 -37.536,-15.174c-9.983,-9.883 -15.773,-22.961 -15.873,-37.237c-0.1,-14.975 5.291,-28.152 15.174,-37.536c9.284,-10.083 22.961,-15.773 37.237,-15.973l-0.2,-28.651c-44.924,0.499 -81.262,37.536 -80.862,82.36c0.399,44.924 37.536,80.663 82.36,80.263c44.824,-0.499 81.262,-36.937 80.862,-81.761c-0.499,-44.824 -37.536,-81.262 -82.36,-80.862Z" style="fill:#ef454d;fill-rule:nonzero;"/><path d="M1427.32,1692.468c0.2,16.172 -7.188,30.548 -20.765,41.929c-12.978,11.98 -32.245,18.968 -53.409,19.167c-20.565,0.2 -41.23,-8.885 -56.903,-22.462c-7.587,-6.788 -13.876,-14.875 -18.269,-23.56c-4.492,-7.986 -6.389,-16.073 -6.489,-24.159l-14.475,-13.577l-13.577,13.777c0.1,13.178 3.394,25.556 9.684,37.336c8.885,17.37 23.36,32.145 40.331,43.226c17.57,10.981 38.135,18.269 59.898,18.069c27.453,-0.2 52.91,-9.783 71.478,-26.155c19.068,-15.773 30.748,-38.335 30.548,-63.891l-13.876,-14.176l-14.176,14.475Z" style="fill:#ef454d;fill-rule:nonzero;"/><path d="M1515.36,1599.715l0.2,28.651c14.975,-0.1 28.152,5.391 37.536,15.274c10.083,9.184 15.773,22.262 15.873,37.237c0.2,14.276 -5.291,27.453 -15.174,37.536c-9.184,9.384 -22.262,15.773 -37.237,15.873c-14.276,0.1 -28.052,-5.99 -37.536,-15.174c-9.983,-9.883 -15.773,-22.961 -15.873,-37.237c-0.1,-14.975 5.291,-28.052 15.174,-37.536c9.284,-10.083 22.961,-15.773 37.237,-15.973l-0.2,-28.651c-44.924,0.499 -81.262,37.536 -80.862,82.36c0.399,44.924 37.536,80.663 82.36,80.263c44.824,-0.499 81.262,-36.937 80.862,-81.761c-0.499,-44.824 -37.536,-81.262 -82.36,-80.862Z" style="fill:#ef454d;fill-rule:nonzero;"/><path d="M1515.36,1599.715l0.2,28.651c14.975,-0.1 28.152,5.391 37.536,15.274c10.083,9.184 15.773,22.262 15.873,37.237c0.2,14.276 -5.291,27.453 -15.174,37.536c-9.184,9.384 -22.262,15.773 -37.237,15.873c-14.276,0.1 -28.052,-5.99 -37.536,-15.174c-9.983,-9.883 -15.773,-22.961 -15.873,-37.237c-0.1,-14.975 5.291,-28.052 15.174,-37.536c9.284,-10.083 22.961,-15.773 37.237,-15.973l-0.2,-28.651c-44.924,0.499 -81.262,37.536 -80.862,82.36c0.399,44.924 37.536,80.663 82.36,80.263c44.824,-0.499 81.262,-36.937 80.862,-81.761c-0.499,-44.824 -37.536,-81.262 -82.36,-80.862Z" style="fill:#ef454d;fill-rule:nonzero;"/><path d="M1699.426,1597.958l0.2,28.651c14.376,-0.1 28.152,5.391 37.536,15.274c10.083,9.184 15.773,22.262 15.873,37.237c0.2,14.276 -5.291,27.453 -15.174,37.536c-9.184,9.384 -22.861,15.773 -37.137,15.873c-15.074,0.2 -28.152,-5.99 -37.636,-15.174c-9.983,-9.883 -15.773,-22.961 -15.873,-37.237c-0.1,-14.975 5.291,-28.152 15.174,-37.536c9.284,-10.083 22.262,-15.773 37.237,-15.973l-0.2,-28.651c-44.924,0.499 -81.262,37.536 -80.862,82.36c0.399,44.924 37.536,80.663 82.36,80.263c44.824,-0.499 81.262,-36.937 80.862,-81.761c-0.499,-44.824 -37.536,-81.262 -82.36,-80.862Z" style="fill:#ef454d;fill-rule:nonzero;"/><path d="M1618.913,1690.641c0.2,16.172 -7.188,30.548 -20.765,41.929c-12.978,11.98 -32.245,18.968 -53.409,19.167c-20.565,0.2 -41.23,-8.885 -56.903,-22.462c-7.587,-6.788 -13.876,-14.875 -18.269,-23.56c-4.492,-7.986 -6.389,-16.073 -6.489,-24.159l-14.475,-13.577l-14.176,13.777c0.1,13.178 3.993,25.556 10.282,37.336c8.885,17.37 23.36,32.145 40.331,43.226c17.57,10.981 38.135,18.269 59.898,18.069c27.453,-0.2 52.91,-9.783 71.478,-26.155c19.068,-15.773 30.748,-38.335 30.548,-63.891l-13.876,-14.176l-14.176,14.475Z" style="fill:#ef454d;fill-rule:nonzero;"/><path d="M1706.954,1597.889l0.2,28.651c14.376,-0.1 28.152,5.391 37.536,15.274c10.083,9.184 15.773,22.262 15.873,37.237c0.2,14.276 -5.291,27.453 -15.174,37.536c-9.184,9.384 -22.861,15.773 -37.237,15.873c-14.975,0.2 -28.052,-5.99 -37.536,-15.174c-9.983,-9.883 -15.773,-22.961 -15.873,-37.237c-0.1,-14.975 5.291,-28.052 15.174,-37.536c9.284,-10.083 22.262,-15.773 37.237,-15.973l-0.2,-28.651c-44.924,0.499 -81.262,37.536 -80.862,82.36c0.399,44.924 37.536,80.663 82.36,80.263c44.824,-0.499 81.262,-36.937 80.862,-81.761c-0.499,-44.824 -37.536,-81.262 -82.36,-80.862Z" style="fill:#ef454d;fill-rule:nonzero;"/><path d="M1706.954,1597.889l0.2,28.651c14.376,-0.1 28.152,5.391 37.536,15.274c10.083,9.184 15.773,22.262 15.873,37.237c0.2,14.276 -5.291,27.453 -15.174,37.536c-9.184,9.384 -22.861,15.773 -37.237,15.873c-14.975,0.2 -28.052,-5.99 -37.536,-15.174c-9.983,-9.883 -15.773,-22.961 -15.873,-37.237c-0.1,-14.975 5.291,-28.052 15.174,-37.536c9.284,-10.083 22.262,-15.773 37.237,-15.973l-0.2,-28.651c-44.924,0.499 -81.262,37.536 -80.862,82.36c0.399,44.924 37.536,80.663 82.36,80.263c44.824,-0.499 81.262,-36.937 80.862,-81.761c-0.499,-44.824 -37.536,-81.262 -82.36,-80.862Z" style="fill:#ef454d;fill-rule:nonzero;"/><path d="M1890.95,1596.132l0.2,28.651c14.376,-0.1 28.152,5.391 37.536,15.274c10.083,9.184 15.773,22.262 15.873,37.237c0.2,14.276 -5.291,27.453 -15.174,37.536c-9.184,9.384 -22.861,15.773 -37.237,15.873c-14.975,0.2 -28.052,-5.99 -37.536,-15.174c-9.983,-9.883 -15.773,-22.961 -15.873,-37.237c-0.1,-14.975 5.291,-28.052 15.174,-37.536c9.284,-10.083 22.262,-15.773 37.237,-15.973l-0.2,-28.651c-44.924,0.499 -81.262,37.536 -80.862,82.36c0.399,44.924 37.536,80.663 82.36,80.263c44.824,-0.499 81.262,-36.937 80.862,-81.761c-0.499,-44.824 -37.536,-81.262 -82.36,-80.862Z" style="fill:#ef454d;fill-rule:nonzero;"/><path d="M1810.517,1688.814c0.2,16.172 -7.188,30.548 -20.864,41.929c-12.878,11.98 -32.145,18.968 -53.309,19.167c-20.565,0.2 -41.23,-8.885 -56.903,-22.462c-7.587,-6.788 -13.876,-14.875 -18.269,-23.56c-4.492,-7.986 -6.389,-16.073 -6.489,-24.159l-14.475,-13.577l-13.577,13.777c0.1,13.178 3.394,25.556 9.684,37.336c8.885,17.37 23.36,32.145 40.331,43.226c17.57,10.981 38.135,18.269 59.898,18.069c27.453,-0.2 52.91,-9.783 71.478,-26.155c19.068,-15.773 30.748,-38.335 30.548,-63.891l-13.876,-14.176l-14.176,14.475Z" style="fill:#ef454d;fill-rule:nonzero;"/><path d="M1953.623,2351.276l0.699,6.788l14.875,-7.587l19.966,7.887c5.69,5.59 8.885,13.078 8.985,22.961c0.1,9.983 -2.995,17.47 -8.585,23.161l-20.365,8.286c-13.078,0.1 -22.562,-7.288 -25.756,-19.068l10.582,-2.596l15.074,11.081c10.482,-0.1 17.271,-6.988 17.171,-20.765c-0.1,-13.677 -7.088,-20.465 -17.57,-20.365c-8.186,0.1 -12.479,5.091 -13.677,11.381l11.88,-0.1l0.1,9.284l-22.462,0.2l-0.299,-30.448l9.384,-0.1Z" style="fill:#ef454d;fill-rule:nonzero;"/><path d="M1930.523,2412.611l-11.181,0.1l-0.499,-50.414l-26.255,0.2l-0.1,-10.582l37.436,-0.399l0.599,61.096Z" style="fill:#ef454d;fill-rule:nonzero;"/><path d="M1839.328,2413.48l-0.399,-38.035c-0.1,-15.573 8.486,-23.76 22.861,-23.859c13.677,-0.1 22.462,7.887 22.661,23.46l0.299,38.035l-11.181,0.1l-0.399,-38.035c0,-8.685 -3.794,-13.078 -11.281,-12.978c-8.086,0.1 -11.88,4.492 -11.78,13.178l0.399,38.035l-11.181,0.1Z" style="fill:#ef454d;fill-rule:nonzero;"/><path d="M1798.208,2404.086l12.379,-5.091l4.792,-15.673l-5.091,-15.474l-12.479,-5.491l-12.379,5.69l-4.892,15.673l5.191,15.474l12.479,4.892Zm0.1,10.582c-10.582,0.1 -19.367,-4.193 -25.057,-13.477l-3.893,-17.37c-0.1,-13.777 5.391,-23.76 14.076,-28.152l14.276,-3.294c10.582,-0.1 19.267,3.594 25.057,13.477l3.893,17.37c0.1,13.078 -5.391,23.76 -14.076,28.152l-14.276,3.294Z" style="fill:#ef454d;fill-rule:nonzero;"/><path d="M1722.996,2414.588l-11.181,0.1l-0.599,-60.996l11.78,-0.2l22.861,40.331l-0.399,-40.531l11.181,-0.1l0.599,61.096l-11.88,0.1l-22.761,-40.331l0.399,40.531Z" style="fill:#ef454d;fill-rule:nonzero;"/><path d="M526.613,1034.438l-0.699,-6.888l-14.875,7.687l-19.966,-7.986c-5.69,-5.491 -8.885,-12.978 -8.985,-22.961c-0.1,-9.883 2.895,-17.47 8.486,-23.061l20.465,-8.286c13.078,-0.2 22.462,7.188 25.756,19.068l-10.582,2.596l-15.074,-11.081c-10.582,0.1 -17.37,6.988 -17.171,20.665c0.1,13.777 6.988,20.565 17.57,20.365c8.086,0 12.379,-5.091 13.577,-11.281l-11.78,0.1l-0.1,-9.384l22.362,-0.2l0.299,30.548l-9.284,0.1Z" style="fill:#ef454d;fill-rule:nonzero;"/><path d="M549.714,973.122l11.181,-0.1l0.499,50.414l26.155,-0.2l0.1,10.582l-37.336,0.299l-0.599,-60.996Z" style="fill:#ef454d;fill-rule:nonzero;"/><path d="M640.909,972.254l0.399,37.935c0.1,15.673 -8.585,23.859 -22.861,23.959c-13.677,0.1 -22.562,-7.887 -22.661,-23.46l-0.399,-38.035l11.281,-0.1l0.299,38.035c0.1,8.685 3.893,12.978 11.381,12.978c8.086,-0.1 11.78,-4.492 11.68,-13.178l-0.299,-38.035l11.181,-0.1Z" style="fill:#ef454d;fill-rule:nonzero;"/><path d="M682.019,981.578l-12.379,5.091l-4.892,15.673l5.191,15.474l12.479,5.491l12.379,-5.69l4.792,-15.673l-5.091,-15.474l-12.479,-4.892Zm-0.1,-10.582c10.582,-0.1 19.267,4.193 25.057,13.477l3.893,17.37c0.1,13.677 -5.99,23.76 -14.076,28.152l-14.276,3.294c-10.582,0.1 -19.367,-3.594 -25.057,-13.477l-3.893,-17.37c-0.1,-13.078 5.391,-23.76 14.076,-28.252l14.276,-3.195Z" style="fill:#ef454d;fill-rule:nonzero;"/><path d="M757.32,971.146l11.181,-0.1l0.599,60.996l-11.88,0.1l-22.761,-40.231l0.399,40.531l-11.281,0.1l-0.499,-61.096l11.78,-0.1l22.861,40.231l-0.399,-40.431Z" style="fill:#ef454d;fill-rule:nonzero;"/><path d="M1916.726,1305.466l-4.892,13.777l3.893,11.181l10.582,3.594l12.379,-5.69l4.892,-13.777l-3.794,-11.181l-10.083,-3.594l-12.978,5.69Zm41.03,-65.788l10.482,-16.272l-5.69,-12.479l-14.376,-4.193l-14.975,4.492l-5.391,11.281l3.195,9.284l9.983,4.293l8.086,1.198l8.685,2.396Zm-70.081,97.234l-3.195,-16.172c-0.1,-8.086 1.697,-16.272 5.391,-23.161l16.672,-15.673c7.387,-3.794 15.474,-5.79 24.159,-5.89l18.169,3.594l6.09,-8.785l-2.496,-5.59l-7.487,-2.995l-8.186,-1.198c-24.858,-4.093 -37.536,-17.071 -37.736,-37.636l6.09,-21.264l17.271,-14.475c8.086,-3.195 16.771,-5.191 26.754,-5.191c8.685,-0.1 16.871,1.098 23.76,4.692l16.272,12.978l5.79,19.866l-4.792,17.47l-13.577,13.178l5.69,15.573l-4.193,14.975l-12.978,11.281l6.389,19.966c0.1,8.685 -2.296,16.172 -5.99,23.061l-16.672,16.372c-7.387,3.794 -14.875,5.69 -24.159,5.79l-21.863,-5.391l-25.457,12.678l-6.988,-19.866l17.271,-8.186Z" style="fill:#ef454d;fill-rule:nonzero;"/><path d="M1882.654,2133.387l-10.482,16.272l5.69,11.78l14.376,4.892l14.975,-4.492l5.491,-11.98l-3.195,-8.685l-10.682,-4.892l-7.487,-1.098l-8.685,-1.797Zm41.03,-65.788l4.892,-13.777l-3.794,-11.181l-10.682,-3.594l-12.379,5.091l-4.792,14.376l3.794,10.482l9.983,4.293l12.978,-5.69Zm28.452,-31.446l3.794,15.573c0.1,8.685 -1.697,16.172 -5.99,23.061l-15.973,16.372c-7.487,3.794 -15.573,5.79 -24.259,5.79l-18.069,-3.494l-6.189,8.785l2.596,5.59l7.487,2.396l8.086,1.797c24.958,4.093 37.536,16.472 37.736,37.636l-5.99,21.164l-17.969,13.876c-7.487,3.893 -16.172,5.79 -26.155,5.89c-8.685,0.1 -16.771,-1.697 -23.66,-4.792l-16.372,-13.477l-6.389,-19.267l4.792,-18.069l13.577,-12.678l-5.091,-16.073l4.193,-15.074l12.978,-11.281l-6.389,-19.866c-0.1,-8.086 1.697,-16.172 5.99,-23.161l16.672,-15.673c6.788,-4.393 14.875,-5.79 23.56,-5.89l22.562,5.391l25.357,-12.678l7.088,19.267l-17.969,8.885Z" style="fill:#ef454d;fill-rule:nonzero;"/><path d="M529.958,2146.225l-10.482,16.272l5.69,11.78l14.376,4.892l14.975,-4.492l5.491,-11.98l-3.195,-8.685l-10.682,-4.892l-7.487,-1.098l-8.685,-1.797Zm41.03,-65.788l4.892,-13.777l-3.794,-11.181l-10.682,-3.594l-12.379,5.091l-4.792,14.376l3.794,10.482l9.983,4.293l12.978,-5.69Zm28.452,-31.446l3.794,15.573c0.1,8.685 -1.697,16.172 -5.99,23.061l-15.973,16.372c-7.487,3.794 -15.573,5.79 -24.259,5.79l-18.069,-3.494l-6.189,8.785l2.596,5.59l7.487,2.396l8.086,1.797c24.958,4.093 37.536,16.472 37.736,37.636l-5.99,21.164l-17.969,13.876c-7.487,3.893 -16.172,5.79 -26.155,5.89c-8.685,0.1 -16.771,-1.697 -23.66,-4.792l-16.372,-13.477l-5.79,-19.267l4.193,-18.069l13.577,-12.579l-5.091,-16.172l4.193,-14.975l12.978,-11.381l-6.389,-19.866c-0.1,-8.086 1.697,-16.172 5.99,-23.161l16.672,-15.673c6.788,-4.393 14.875,-5.79 23.56,-5.89l22.562,5.391l25.357,-12.678l7.088,19.267l-17.969,8.885Z" style="fill:#ef454d;fill-rule:nonzero;"/><path d="M530.197,1318.694l-4.892,13.777l3.893,11.181l10.582,3.594l12.379,-5.69l4.892,-13.777l-3.794,-11.181l-10.083,-3.594l-12.978,5.69Zm41.03,-65.788l10.482,-16.272l-5.69,-12.479l-14.376,-4.193l-14.975,4.492l-5.391,11.281l3.195,9.284l9.983,4.293l8.086,1.198l8.685,2.396Zm-70.081,97.234l-3.195,-16.172c-0.1,-8.086 1.697,-16.272 5.391,-23.161l16.672,-15.673c7.387,-3.794 15.474,-5.79 24.159,-5.89l18.169,3.594l6.09,-8.785l-2.496,-5.59l-7.487,-2.995l-8.186,-1.198c-24.858,-4.692 -37.536,-17.071 -37.736,-37.636l6.09,-21.264l17.271,-14.475c8.086,-3.195 16.771,-5.091 26.754,-5.191c8.685,-0.1 16.871,1.098 23.76,4.692l16.272,12.978l5.79,19.866l-4.792,17.47l-12.978,13.178l5.091,15.573l-4.193,14.975l-12.978,11.281l6.389,19.966c0.1,8.685 -1.697,16.172 -5.99,23.061l-16.672,16.372c-7.387,3.794 -14.875,5.69 -24.159,5.79l-21.863,-5.391l-25.457,12.678l-6.988,-19.866l17.271,-8.186Z" style="fill:#ef454d;fill-rule:nonzero;"/></g></g></g></svg>