<?xml version="1.0" encoding="UTF-8" standalone="no"?><!DOCTYPE svg PUBLIC "-//W3C//DTD SVG 1.1//EN" "http://www.w3.org/Graphics/SVG/1.1/DTD/svg11.dtd"><svg width="100%" height="100%" viewBox="0 0 2481 3508" version="1.1" xmlns="http://www.w3.org/2000/svg" xmlns:xlink="http://www.w3.org/1999/xlink" xml:space="preserve" xmlns:serif="http://www.serif.com/" style="fill-rule:evenodd;clip-rule:evenodd;stroke-linejoin:round;stroke-miterlimit:2;"><rect id="Artboard4" x="0" y="0" width="2480.317" height="3507.875" style="fill:none;"/><clipPath id="_clip1"><rect x="0" y="0" width="2480.317" height="3507.875"/></clipPath><g clip-path="url(#_clip1)"><path d="M3.752,1698.02l446.751,774.557l1583.795,0.629l447.366,-774.462l-447.005,-774.128l-1583.795,-0.629l-447.112,774.032Z" style="fill:#fccf23;fill-rule:nonzero;"/><g><clipPath id="_clip2"><path d="M3.533,1698.586l446.665,774.507l1584.049,0.199l447.198,-773.981l-446.7,-774.643l-1583.744,-0.715l-447.468,774.634Z" clip-rule="nonzero"/></clipPath><g clip-path="url(#_clip2)"><path d="M3.431,2178.703l0.03,-166.944c-43.852,-0.155 -84.615,-9.27 -121.572,-24.833c-56.122,-23.75 -104.209,-63.857 -138.014,-113.618c-33.856,-49.675 -53.111,-109.743 -53.102,-174.551c0.105,-43.766 8.704,-84.834 24.403,-121.826c23.75,-56.122 63.72,-104.174 113.532,-138.065c50.277,-33.501 109.829,-53.06 174.551,-53.102c43.852,0.155 84.92,8.755 121.826,24.403c56.122,23.75 104.174,63.72 138.065,113.532c33.501,50.277 53.06,109.829 53.618,174.856c-0.155,43.852 -9.27,84.615 -24.97,121.607c-23.699,56.036 -63.72,104.174 -113.481,137.979c-49.812,33.891 -109.879,53.146 -174.856,53.618l-0.03,166.944c66.145,0.102 129.148,-13.129 187.007,-37.283c85.903,-36.695 159.375,-97.891 211.441,-174.279c51.55,-76.693 81.912,-169.144 81.782,-268.47c0.067,-66.281 -13.164,-129.285 -37.232,-187.093c-36.695,-85.903 -97.891,-159.375 -174.279,-211.441c-76.693,-51.55 -169.28,-81.876 -268.607,-81.746c-66.145,-0.102 -129.148,13.129 -187.007,37.283c-85.903,36.695 -159.325,97.805 -211.39,174.193c-51.55,76.693 -81.962,169.229 -81.832,268.556c-0.102,66.145 13.731,129.504 37.283,187.007c37.246,86.345 97.84,159.461 174.279,211.441c76.693,51.55 169.229,81.962 268.556,81.832Z" style="fill:#302f87;fill-rule:nonzero;"/><path d="M2481.428,1219.239l-0.03,166.944c43.766,0.105 84.529,9.22 121.521,24.919c56.122,23.75 104.174,63.72 138.065,113.532c33.805,49.761 53.06,109.829 53.102,174.551c-0.155,43.852 -8.755,84.92 -24.403,121.826c-23.75,56.122 -63.771,104.26 -113.532,138.065c-50.277,33.501 -109.829,53.06 -174.551,53.102c-43.852,-0.155 -84.92,-8.755 -121.962,-24.368c-55.986,-23.785 -104.123,-63.806 -137.928,-113.567c-33.501,-50.277 -53.06,-109.829 -53.618,-174.856c0.155,-43.852 9.22,-84.529 24.833,-121.572c23.836,-56.072 63.806,-104.123 113.618,-138.014c49.761,-33.805 109.743,-53.111 174.856,-53.618l0.03,-166.944c-66.145,-0.102 -129.199,13.215 -187.058,37.369c-85.903,36.695 -159.325,97.805 -211.39,174.193c-51.55,76.693 -81.962,169.229 -81.832,268.556c-0.102,66.145 13.129,129.148 37.283,187.007c36.695,85.903 97.84,159.461 174.279,211.441c76.693,51.55 169.144,81.912 268.556,81.832c66.195,0.016 129.148,-13.129 187.007,-37.283c85.903,-36.695 159.375,-97.891 211.441,-174.279c51.55,-76.693 81.962,-169.229 81.746,-268.607c0.102,-66.145 -13.645,-129.453 -37.197,-186.956c-37.297,-86.259 -97.891,-159.375 -174.279,-211.441c-76.693,-51.55 -169.229,-81.962 -268.556,-81.832Z" style="fill:#302f87;fill-rule:nonzero;"/><path d="M495.102,1032.676l0.018,-61.093l11.404,0.126l-0.165,22.86l24.231,0.395l0.521,-23.461l11.49,0.176l-0.104,61.042l-11.404,-0.126l-0.02,-27.259l-24.536,0.12l-0.031,27.345l-11.404,-0.126Z" style="fill:#302f87;fill-rule:nonzero;"/><path d="M556.08,1032.614l11.491,0.013l0.068,-61.015l-11.491,-0.013l-0.068,61.015Z" style="fill:#302f87;"/><path d="M624.607,1032.767l-1.295,-6.446l-14.399,7.498l-20.198,-8.797c-5.534,-5.355 -8.325,-12.801 -8.344,-22.783c0.032,-10.068 3.027,-17.692 8.897,-22.921l20.626,-8.226c13.096,-0.383 22.108,7.722 24.791,19.278l-10.22,2.777l-14.908,-11.47c-10.068,-0.032 -17.81,6.991 -17.732,20.603c0.543,14.002 7.406,20.838 17.423,20.956l14.179,-12.034l-11.846,0.425l-0.186,-9.502l22.293,-0.053l0.384,30.373l-9.466,0.323Z" style="fill:#302f87;fill-rule:nonzero;"/><path d="M690.513,1032.763l-1.295,-6.446l-14.399,7.498l-20.198,-8.797c-5.534,-5.355 -8.325,-12.801 -8.344,-22.783c0.032,-10.068 3.027,-17.692 8.897,-22.921l20.626,-8.226c13.182,-0.332 22.108,7.722 25.096,18.762l-10.524,3.293l-14.553,-12.072c-10.424,0.569 -18.165,7.592 -18.087,21.204c-0.023,13.784 7.406,20.838 17.423,20.956l14.179,-12.034l-11.846,0.425l0.118,-10.017l22.293,-0.053l0.079,30.888l-9.466,0.323Z" style="fill:#302f87;fill-rule:nonzero;"/><path d="M738.931,987.938l-8.554,-6.327l-5.957,5.178l9.004,9.491c7.623,2.994 17.142,7.688 17.626,18.061c-0.481,12.006 -8.137,19.08 -19.932,19.419l-13.664,-4.938l-7.294,-12.191l9.289,-6.109l12.006,12.655l7.749,-8.41l-8.926,-8.054c-7.319,-3.51 -16.271,-7.985 -16.45,-18.874l4.931,-12.277l11.954,-4.535l17.506,10.802l-9.289,6.109Z" style="fill:#302f87;fill-rule:nonzero;"/><path d="M797.958,1005.925l-0.21,16.456l10.889,-0.179l9.738,-8.047l-10.348,-8.198l-10.068,-0.032Zm-0.046,-23.68l0.383,13.096l10.068,0.032l7.351,-6.558l-7.734,-6.538l-10.068,-0.032Zm-11.068,-10.71l22.074,0.513c10.889,-0.179 17.809,5.183 17.472,15.767l-6.049,11.617l9.436,14.848c-0.344,11.971 -7.781,18.478 -20.659,18.294l-22.293,0.053l0.018,-61.093Z" style="fill:#302f87;fill-rule:nonzero;"/><path d="M868.292,981.439l-12.309,5.137l-4.871,15.907l4.9,15.068l11.972,5.447l12.309,-5.137l5.473,-15.551l-5.197,-15.939l-12.277,-4.931Zm0.337,-10.584c10.068,0.032 19.325,3.991 24.258,14.093l4.283,17.486c0.027,13.698 -6.174,23.022 -14.549,27.583l-14.154,3.352c-10.889,0.179 -19.239,-3.941 -25.13,-13.796l-3.717,-17.268c0.059,-13.647 5.963,-23.842 14.338,-28.404l14.67,-3.048Z" style="fill:#302f87;fill-rule:nonzero;"/><path d="M934.637,987.897l-8.554,-6.327l-5.957,5.178l9.004,9.491c7.623,2.994 17.142,7.688 17.27,18.662c-0.126,11.404 -7.781,18.478 -19.576,18.818l-13.664,-4.938l-7.294,-12.191l9.289,-6.109l12.006,12.655l7.749,-8.41l-8.926,-8.054c-7.319,-3.51 -16.575,-7.469 -16.45,-18.874l4.626,-11.761l12.259,-5.051l17.506,10.802l-9.289,6.109Z" style="fill:#302f87;fill-rule:nonzero;"/><path d="M984.709,981.523l-12.309,5.137l-4.871,15.907l4.9,15.068l11.972,5.447l12.309,-5.137l5.473,-15.551l-5.197,-15.939l-12.277,-4.931Zm0.337,-10.584c10.068,0.032 19.02,4.507 24.258,14.093l4.283,17.486c0.027,13.698 -6.174,23.022 -14.549,27.583l-14.154,3.352c-10.889,0.179 -19.239,-3.941 -25.13,-13.796l-3.717,-17.268c0.059,-13.647 5.963,-23.842 14.338,-28.404l14.67,-3.048Z" style="fill:#302f87;fill-rule:nonzero;"/><path d="M1059.703,971.766l11.404,0.126l-0.068,61.179l-12.311,0.035l-21.773,-40.685l-0.215,40.222l-11.709,0.39l0.018,-61.093l12.362,-0.121l22.078,40.169l0.215,-40.222Z" style="fill:#302f87;fill-rule:nonzero;"/><path d="M1989.871,2363.699l-0.068,61.179l-11.49,-0.176l0.302,-22.895l-24.282,-0.31l-0.556,23.325l-11.455,-0.04l0.67,-60.824l10.889,-0.179l-0.031,27.345l24.586,-0.206l0.031,-27.345l11.404,0.126Z" style="fill:#302f87;fill-rule:nonzero;"/><path d="M1928.661,2363.821l-11.404,-0.003l-0.018,60.971l11.404,0.003l0.018,-60.971Z" style="fill:#302f87;"/><path d="M1860.214,2363.611l1.244,6.532l14.399,-7.498l20.112,8.746c5.534,5.355 8.462,12.765 8.43,22.834c-0.032,10.068 -3.027,17.692 -8.897,22.921l-20.626,8.226c-12.827,-0.27 -22.108,-7.722 -24.74,-19.364l10.169,-2.691l14.908,11.47c10.068,0.032 17.724,-7.041 17.782,-20.688c-0.027,-13.698 -7.406,-20.838 -17.474,-20.87l-14.128,11.948l11.709,-0.39l0.323,9.466l-22.344,0.139l-0.419,-30.509l9.552,-0.272Z" style="fill:#302f87;fill-rule:nonzero;"/><path d="M1794.313,2363.607l1.244,6.532l14.399,-7.498l20.112,8.746c5.534,5.355 8.158,13.281 8.43,22.834c-0.032,10.068 -3.027,17.692 -8.897,22.921l-20.626,8.226c-13.131,0.246 -22.108,-7.722 -25.045,-18.848l10.474,-3.207l14.908,11.47c10.068,0.032 17.724,-7.041 17.782,-20.688c-0.543,-14.002 -7.406,-20.838 -17.474,-20.87l-14.128,11.948l11.709,-0.39l0.018,9.982l-22.344,0.139l-0.114,-31.025l9.552,-0.272Z" style="fill:#302f87;fill-rule:nonzero;"/><path d="M1745.838,2408.41l8.503,6.413l5.871,-5.229l-8.868,-9.527c-7.674,-2.908 -17.142,-7.688 -17.626,-18.061c0.43,-11.92 8.137,-19.08 19.932,-19.419l13.613,5.024l7.345,12.106l-9.289,6.109l-12.092,-12.706l-7.8,8.496l9.012,8.104c7.369,3.424 16.322,7.899 16.501,18.788l-4.931,12.277l-12.005,4.621l-17.506,-10.802l9.34,-6.195Z" style="fill:#302f87;fill-rule:nonzero;"/><path d="M1686.813,2414.216l-0.027,-13.698l-10.373,0.484l-7.351,6.558l7.683,6.624l10.068,0.032Zm-0.046,-23.68l0.21,-16.456l-10.533,-0.423l-10.093,8.649l10.399,8.112l10.017,0.118Zm11.418,33.874l-22.293,0.053c-10.889,0.179 -17.895,-5.234 -17.203,-16.42l5.744,-11.101l-9.486,-14.762c0.481,-12.006 7.832,-18.564 20.143,-18.599l23.113,-0.264l-0.018,61.093Z" style="fill:#302f87;fill-rule:nonzero;"/><path d="M1616.483,2414.9l12.309,-5.137l4.821,-15.821l-4.935,-15.204l-11.886,-5.396l-12.395,5.086l-5.387,15.602l5.197,15.939l12.277,4.931Zm-0.337,10.584c-10.068,-0.032 -19.325,-3.991 -24.309,-14.007l-4.232,-17.572c-0.027,-13.698 6.088,-23.072 14.463,-27.634l14.189,-3.216c10.939,-0.265 19.29,3.855 25.18,13.71l3.58,17.303c0.078,13.612 -5.877,23.893 -14.201,28.369l-14.67,3.048Z" style="fill:#302f87;fill-rule:nonzero;"/><path d="M1550.15,2408.46l8.503,6.413l5.871,-5.229l-8.868,-9.527c-7.674,-2.908 -17.142,-7.688 -17.626,-18.061c0.43,-11.92 8.137,-19.08 19.932,-19.419l13.613,5.024l7.345,12.106l-9.289,6.109l-12.092,-12.706l-7.714,8.547l8.926,8.054c7.369,3.424 16.626,7.383 16.501,18.788l-4.626,11.761l-12.309,5.137l-17.506,-10.802l9.34,-6.195Z" style="fill:#302f87;fill-rule:nonzero;"/><path d="M1500.019,2414.893l12.309,-5.137l4.821,-15.821l-4.63,-15.72l-12.191,-4.88l-12.395,5.086l-5.387,15.602l5.197,15.939l12.277,4.931Zm-0.337,10.584c-10.068,-0.032 -19.02,-4.507 -24.309,-14.007l-4.232,-17.572c-0.027,-13.698 6.088,-23.072 14.463,-27.634l14.189,-3.216c10.939,-0.265 19.29,3.855 25.18,13.71l3.58,17.303c0.078,13.612 -5.877,23.893 -14.201,28.369l-14.67,3.048Z" style="fill:#302f87;fill-rule:nonzero;"/><path d="M1425.067,2424.582l-11.404,-0.126l0.018,-61.093l12.276,-0.172l21.859,40.735l0.469,-40.652l11.455,0.04l-0.068,61.179l-12.311,0.035l-22.129,-40.083l-0.164,40.136Z" style="fill:#302f87;fill-rule:nonzero;"/></g></g><path d="M580.791,1713.373l120.53,0.68l15.506,-15.656l-15.839,-14.803l-120.014,-0.376l-15.151,15.054l14.968,15.1Zm240.863,0.318l120.283,-0.277l15.151,-15.054l-14.968,-15.1l-120.283,0.277l-15.151,15.054l14.968,15.1Zm240.348,0.013l120.85,-0.058l15.1,-14.968l-15.57,-15.455l-120.283,0.277l-15.151,15.054l15.054,15.151Zm240.777,0.267l120.283,-0.277l15.151,-15.054l-14.968,-15.1l-120.283,0.277l-15.151,15.054l14.968,15.1Zm240.262,-0.038l120.936,-0.007l15.1,-14.968l-15.57,-15.455l-120.369,0.226l-15.065,15.105l14.968,15.1Zm241.168,-0.198l119.979,0.239l15.151,-15.054l-15.054,-15.151l-119.893,-0.188l-15.491,15.433l15.308,14.721Z" style="fill:#302f87;fill-rule:nonzero;"/><path d="M495.237,2151.638l30.888,-0.079l14.52,-75.834l42.343,-0.039l-14.348,75.936l30.154,0.183l33.145,-169.419l-30.509,0.419l-12.48,63.937l-42.785,0.59l12.234,-64.894l-30.068,-0.132l-33.094,169.333Z" style="fill:#302f87;fill-rule:nonzero;"/><path d="M490.924,1416.233l30.119,0.046l12.785,-64.453l42.82,-0.454l-12.32,64.843l30.154,0.183l33.008,-169.383l-30.67,-0.487l-14.602,76.365l-42.734,0.505l14.653,-76.451l-30.205,-0.097l-33.008,169.383Z" style="fill:#302f87;fill-rule:nonzero;"/><path d="M1856.454,1416.601l30.373,-0.384l12.531,-64.023l42.769,-0.368l-12.269,64.757l30.068,0.132l33.094,-169.333l-31.025,0.114l-14.297,75.85l-42.683,0.419l14.602,-76.365l-30.154,-0.183l-33.008,169.383Z" style="fill:#302f87;fill-rule:nonzero;"/><path d="M1856.576,2152.036l30.67,0.487l14.703,-76.537l42.465,0.148l-14.348,75.936l30.119,0.046l33.094,-169.333l-30.509,0.419l-12.48,63.937l-42.785,0.59l12.37,-64.929l-30.154,-0.183l-33.145,169.419Z" style="fill:#302f87;fill-rule:nonzero;"/></g></svg>