<?xml version="1.0" encoding="UTF-8" standalone="no"?><!DOCTYPE svg PUBLIC "-//W3C//DTD SVG 1.1//EN" "http://www.w3.org/Graphics/SVG/1.1/DTD/svg11.dtd"><svg width="100%" height="100%" viewBox="0 0 2481 3508" version="1.1" xmlns="http://www.w3.org/2000/svg" xmlns:xlink="http://www.w3.org/1999/xlink" xml:space="preserve" xmlns:serif="http://www.serif.com/" style="fill-rule:evenodd;clip-rule:evenodd;stroke-linejoin:round;stroke-miterlimit:2;"><rect id="Artboard1" x="0" y="0" width="2480.317" height="3507.875" style="fill:none;"/><path d="M2475.639,1751.405l-446.97,-770.6l-789.097,1.283l-789.233,1.318l-444.263,772.625l446.92,770.686l1578.416,-2.55l444.227,-772.761Z" style="fill:#00a7a3;fill-rule:nonzero;"/><g><clipPath id="_clip1"><path d="M2474.674,980.683l-2470.128,4.409l3.257,1543.663l2469.175,-4.161l-2.304,-1543.911Z" clip-rule="nonzero"/></clipPath><g clip-path="url(#_clip1)"><path d="M582.528,2146.052c10.686,-36.037 20.555,-71.862 31.291,-107.985l32.308,-0.038l-1.612,2.743l-6.003,12.961l-8.874,17.846l-10.44,21.884l-6.964,15.97l-6.3,12.094l-7.312,15.189l-2.966,7.597l-7.478,15.668l-3.832,7.895l-0.09,1.331l0.503,10.327l0.715,11.144l0.789,6.114l-0.011,10.025l-0.309,9.158l-2.377,17.975l-3.872,9.14l-6.787,5.466l-12.663,-5.136l-2.06,-9.051l0.164,-6.361l1.04,-9.421l3.789,-16.453l6.076,-17.991l6.003,-12.961l0.055,-1.467l-2.375,-15.578l-4.263,-22.569l-3.485,-17.614l-4.994,-22.306l-6.444,-18.661l-5.588,-8.934l-11.066,-5.696l-9.213,1.158l-9.024,6.919l-3.765,11.508l-1.125,9.37l-2.712,-0.095l-2.747,-0.231l-0.298,-0.867l1.081,-17.929l3.558,-13.706l7.379,-11.575l11.434,-6.31l16.084,0.689l7.24,4.947l7.483,9.241l6.322,16.514l4.692,22.82l3.344,19.031l3.077,19.681l2.411,15.715l0.212,0.816Z" style="fill:#fccf23;fill-rule:nonzero;"/><path d="M582.528,2146.052l2.495,0.659c10.686,-36.037 21.07,-71.56 31.241,-107.899l-2.445,-0.745l-0.145,2.797l32.222,-0.089l0.231,-2.747l-3.095,-1.012l-1.476,2.707l-5.701,12.447l-8.359,18.148l-6.96,14.589l-3.782,7.809l-7.312,15.189l-5.701,12.447l-7.262,15.104l-3.48,7.295l-7.564,15.618l-3.832,7.895l-0.302,0.514l0.157,2.283l-0.302,0.514l0.805,9.813l1.365,11.411l-0.164,6.361l0.291,9.511l-0.611,9.673l-2.024,17.375l-3.268,8.111l-5.23,4.191l-2.283,0.157l-6.992,-3.994l-2.065,-7.67l-0.279,-4.43l0.357,-1.981l0.823,-8.856l3.738,-16.367l6.288,-17.175l5.791,-13.777l0.357,-1.981l-0.212,-0.816l-2.713,-15.2l-3.411,-22.644l-3.384,-17.786l-5.13,-22.271l-6.958,-18.964l-6.314,-10.053l-12.694,-6.653l-2.797,-0.145l-7.882,1.248l-9.896,8.598l-4.532,11.635l-1.478,9.97l3.312,0.447l-0.671,-2.585l-0.514,-0.302l-1.381,-0.004l-1.416,-0.141l-1.683,0.51l0.208,2.197l2.747,0.231l-0.298,-0.867l-2.747,-0.231l2.747,0.231l0.141,-1.416l0.991,-16.598l3.77,-12.889l6.16,-10.678l10.013,-5.07l6.501,-1.253l8.252,1.851l6.428,3.778l6.455,8.636l6.236,16.464l5.13,22.271l3.294,19.116l2.83,18.728l2.108,16.229l0.162,0.902l0.722,2.5l2.233,-0.071l2.197,-0.208l0.443,-1.931l-2.495,-0.659l-0.369,-3.1l0.369,3.1l2.585,-0.671l-0.298,-0.867l-2.5,0.722l2.5,-0.722l-2.411,-15.715l-2.478,-19.328l-3.808,-19.419l-4.828,-22.785l-6.448,-17.28l-7.731,-10.193l-8.621,-4.951l-9.935,-1.342l-7.616,0.598l-12.552,7.036l-7.984,12.604l-3.558,13.706l-1.646,17.712l0.51,1.683l0.212,0.816l0.157,2.283l2.197,-0.208l1.931,0.443l0.867,-0.298l0.514,0.302l0.902,-0.162l1.331,0.09l2.283,-0.157l0.659,-2.495l1.125,-9.37l3.625,-10.092l7.039,-5.895l5.599,-1.091l2.797,0.145l9.437,4.739l4.988,8.582l6.232,17.845l5.13,22.271l3.435,17.7l3.663,22.216l2.925,16.017l2.55,-0.807l-2.712,-0.095l-0.141,1.416l2.797,0.145l-3.009,-0.961l-5.489,13.263l-6.591,17.689l-4.091,16.967l-0.525,9.723l-0.392,1.845l0.012,5.081l3.003,9.606l11.49,7.329l3.966,-0.667l8.208,-6.707l4.139,-9.79l2.765,-18.438l0.309,-9.158l0.302,-0.514l-0.342,-9.425l-0.436,-6.713l-0.715,-11.144l-1.32,-10.115l-2.283,0.157l2.495,0.659l0.004,-1.381l-2.409,-0.609l2.193,1.173l3.999,-8.373l7.262,-15.104l3.832,-7.895l6.96,-14.589l5.701,-12.447l7.615,-15.703l3.48,-7.295l7.262,-15.104l8.359,-18.148l6.215,-12.144l0.961,-3.009l1.702,-4.073l-4.128,-0.235l-31.708,0.391l-2.283,0.157l-0.957,1.628c-10.172,36.339 -20.555,71.862 -30.727,108.202l2.445,0.745l-0.369,-3.1l0.369,3.1Z" style="fill:#fccf23;fill-rule:nonzero;"/><path d="M1911.141,2143.629c10.686,-36.037 20.555,-71.862 31.291,-107.985l32.308,-0.038l-1.612,2.743l-6.003,12.961l-8.823,17.76l-7.01,14.675l-3.48,7.295l-6.964,15.97l-6.3,12.094l-6.798,15.491l-3.48,7.295l-7.478,15.668l-3.832,7.895l-0.09,1.331l0.503,10.327l0.715,11.144l0.789,6.114l-0.011,10.025l-0.309,9.158l-2.679,18.489l-3.57,8.625l-6.701,5.517l-12.749,-5.186l-1.974,-9.001l0.078,-6.411l1.04,-9.421l3.789,-16.453l5.774,-17.477l6.305,-13.475l0.141,-1.416l-2.461,-15.629l-4.263,-22.569l-3.485,-17.614l-4.994,-22.306l-6.444,-18.661l-5.588,-8.934l-11.066,-5.696l-9.213,1.158l-9.024,6.919l-3.765,11.508l-1.125,9.37l-2.712,-0.095l-2.747,-0.231l-0.6,-0.353l1.384,-18.443l3.558,-13.706l7.379,-11.575l11.434,-6.31l16.084,0.689l7.24,4.947l7.483,9.241l6.322,16.514l4.692,22.82l3.43,19.081l2.992,19.631l2.411,15.715l0.212,0.816Z" style="fill:#fccf23;fill-rule:nonzero;"/><path d="M1911.141,2143.629l2.495,0.659c10.686,-36.037 21.07,-71.56 31.241,-107.899l-2.445,-0.745l-0.145,2.797l32.222,-0.089l0.231,-2.747l-3.095,-1.012l-0.961,3.009l-6.215,12.144l-8.359,18.148l-6.96,14.589l-3.782,7.809l-7.312,15.189l-5.701,12.447l-7.262,15.104l-3.48,7.295l-7.564,15.618l-3.832,7.895l0.298,0.867l-0.443,1.931l-0.302,0.514l0.805,9.813l1.365,11.411l-0.164,6.361l0.291,9.511l-0.302,0.514l-0.223,9.209l-2.11,17.324l-3.268,8.111l-5.23,4.191l-2.283,0.157l-6.992,-3.994l-2.065,-7.67l-0.279,-4.43l0.443,-1.931l0.737,-8.906l3.738,-16.367l6.288,-17.175l5.489,-13.263l0.302,-0.514l0.357,-1.981l-0.212,-0.816l-2.713,-15.2l-3.411,-22.644l-3.384,-17.786l-5.044,-22.22l-7.044,-19.014l-6.314,-10.053l-12.694,-6.653l-2.797,-0.145l-7.882,1.248l-9.896,8.598l-4.532,11.635l-1.478,9.97l3.312,0.447l-0.671,-2.585l-0.514,-0.302l-1.381,-0.004l-1.416,-0.141l-1.683,0.51l0.208,2.197l2.747,0.231l-0.298,-0.867l-3.049,0.283l3.049,-0.283l0.141,-1.416l0.991,-16.598l3.77,-12.889l6.16,-10.678l10.013,-5.07l6.501,-1.253l8.252,1.851l6.428,3.778l6.455,8.636l6.236,16.464l5.13,22.271l3.294,19.116l2.83,18.728l2.108,16.229l0.162,0.902l0.722,2.5l2.233,-0.071l2.197,-0.208l0.443,-1.931l-2.495,-0.659l0.145,-2.797l-0.816,0.212l0.671,2.585l2.585,-0.671l-0.298,-0.867l-2.5,0.722l2.197,-0.208l-2.108,-16.229l-2.478,-19.328l-3.294,-19.116l-5.342,-23.087l-6.448,-17.28l-7.731,-10.193l-8.621,-4.951l-9.935,-1.342l-7.53,0.648l-12.638,6.986l-7.984,12.604l-3.558,13.706l-1.646,17.712l0.51,1.683l0.212,0.816l0.157,2.283l2.197,-0.208l1.931,0.443l0.867,-0.298l0.514,0.302l0.902,-0.162l1.331,0.09l2.283,-0.157l0.659,-2.495l1.125,-9.37l3.625,-10.092l7.039,-5.895l5.599,-1.091l2.797,0.145l9.437,4.739l5.074,8.632l6.146,17.795l5.13,22.271l3.435,17.7l3.663,22.216l2.925,16.017l2.636,-0.757l-2.797,-0.145l-0.141,1.416l2.797,0.145l-3.009,-0.961l-5.489,13.263l-6.591,17.689l-4.091,16.967l-0.525,9.723l-0.392,1.845l0.012,5.081l3.003,9.606l11.575,7.379l3.966,-0.667l8.636,-6.455l3.711,-10.042l2.679,-18.489l0.309,-9.158l0.302,-0.514l-0.342,-9.425l-0.436,-6.713l-0.715,-11.144l-1.32,-10.115l-2.283,0.157l2.495,0.659l0.09,-1.331l-2.495,-0.659l2.193,1.173l3.999,-8.373l7.262,-15.104l3.832,-7.895l6.96,-14.589l5.786,-12.396l7.529,-15.754l3.48,-7.295l7.262,-15.104l8.359,-18.148l6.215,-12.144l1.047,-2.959l1.616,-4.124l-4.128,-0.235l-31.708,0.391l-2.283,0.157l-0.957,1.628c-10.172,36.339 -20.555,71.862 -30.727,108.202l2.445,0.745l0.145,-2.797l-0.145,2.797Z" style="fill:#fccf23;fill-rule:nonzero;"/><path d="M1899.001,1361.469c-10.686,36.037 -20.555,71.862 -31.241,107.899l-32.222,0.089l1.476,-2.707l6.003,-12.961l8.874,-17.846l10.44,-21.884l7.1,-16.006l6.215,-12.144l6.748,-15.406l3.48,-7.295l7.615,-15.703l3.782,-7.809l0.004,-1.381l-0.503,-10.327l-0.715,-11.144l-0.738,-6.199l0.011,-10.025l0.258,-9.073l2.765,-18.438l3.535,-8.761l6.737,-5.381l12.749,5.186l1.974,9.001l-0.164,6.361l-1.04,9.421l-3.738,16.367l-5.774,17.477l-6.355,13.561l-0.004,1.381l2.411,15.715l4.228,22.432l3.435,17.7l5.044,22.22l6.479,18.798l5.503,8.884l11.066,5.696l9.349,-1.193l8.939,-6.969l3.715,-11.423l1.125,-9.37l2.797,0.145l2.712,0.095l0.6,0.353l-1.434,18.529l-3.558,13.706l-7.329,11.49l-11.434,6.31l-16.084,-0.689l-7.204,-4.811l-7.519,-9.377l-6.322,-16.514l-4.742,-22.735l-3.344,-19.031l-3.077,-19.681l-2.411,-15.715l-0.212,-0.816Z" style="fill:#fccf23;fill-rule:nonzero;"/><path d="M1899.001,1361.469l-2.445,-0.745c-10.736,36.123 -21.12,71.646 -31.291,107.985l2.495,0.659l0.095,-2.712l-32.222,0.089l-0.095,2.712l2.959,1.047l1.561,-2.657l5.751,-12.532l8.223,-18.113l6.96,-14.589l3.782,-7.809l7.312,-15.189l5.701,-12.447l7.262,-15.104l3.53,-7.38l11.346,-23.427l-0.298,-0.867l0.443,-1.931l0.302,-0.514l-0.805,-9.813l-1.229,-11.446l0.078,-6.411l-0.342,-9.425l0.302,-0.514l0.309,-9.158l2.075,-17.46l3.268,-8.111l5.316,-4.14l2.147,-0.122l6.992,3.994l2.115,7.585l0.229,4.516l-0.307,1.895l-0.823,8.856l-3.789,16.453l-6.288,17.175l-5.489,13.263l-0.302,0.514l-0.357,1.981l0.212,0.816l2.713,15.2l3.411,22.644l3.435,17.7l5.13,22.271l6.908,19.049l6.314,10.053l12.744,6.567l2.797,0.145l7.832,-1.162l9.896,-8.598l4.582,-11.72l1.427,-9.885l-3.312,-0.447l0.722,2.5l0.514,0.302l1.331,0.09l1.467,0.055l1.633,-0.424l-0.157,-2.283l-2.712,-0.095l0.212,0.816l3.1,-0.369l-3.1,0.369l-0.141,1.416l-0.855,16.563l-3.906,12.925l-6.16,10.678l-9.963,4.984l-6.552,1.338l-8.201,-1.937l-6.393,-3.642l-6.49,-8.772l-6.236,-16.464l-5.13,-22.271l-3.344,-19.031l-2.78,-18.814l-2.108,-16.229l-0.883,-3.402l-2.283,0.157l-2.197,0.208l-0.392,1.845l2.445,0.745l0.369,3.1l0.353,-0.6l-0.722,-2.5l-2.5,0.722l0.212,0.816l2.5,-0.722l-2.197,0.208l2.108,16.229l2.528,19.243l3.808,19.419l4.828,22.785l6.484,17.417l7.781,10.108l8.535,4.901l9.97,1.478l7.53,-0.648l12.603,-7.122l7.984,-12.604l3.558,-13.706l1.596,-17.626l-0.51,-1.683l-0.162,-0.902l-0.208,-2.197l-2.197,0.208l-1.931,-0.443l-0.816,0.212l-0.514,-0.302l-0.953,0.247l-1.331,-0.09l-2.283,0.157l-0.659,2.495l-1.075,9.285l-3.675,10.178l-6.953,5.945l-5.685,1.041l-2.712,-0.095l-9.437,-4.739l-5.074,-8.632l-6.182,-17.931l-5.13,-22.271l-3.349,-17.65l-3.799,-22.181l-2.925,-16.017l-2.5,0.722l2.712,0.095l0.09,-1.331l-2.797,-0.145l3.009,0.961l5.489,-13.263l6.591,-17.689l4.091,-16.967l0.525,-9.723l0.443,-1.931l-0.063,-4.995l-3.003,-9.606l-11.49,-7.329l-3.916,0.581l-8.258,6.793l-4.089,9.704l-2.815,18.524l-0.258,9.073l-0.217,0.565l0.205,9.46l0.436,6.713l0.715,11.144l1.456,10.08l2.147,-0.122l-2.445,-0.745l-0.055,1.467l2.495,0.659l-2.143,-1.259l-4.135,8.409l-7.262,15.104l-3.782,7.809l-7.01,14.675l-5.701,12.447l-7.564,15.618l-3.48,7.295l-7.262,15.104l-8.274,18.199l-6.3,12.094l-0.961,3.009l-1.702,4.073l4.214,0.286l31.708,-0.391l2.147,-0.122l0.957,-1.628c10.172,-36.339 20.555,-71.862 30.777,-108.287l-2.495,-0.659l0.369,3.1l-0.369,-3.1Z" style="fill:#fccf23;fill-rule:nonzero;"/><path d="M570.365,1363.913c-10.686,36.037 -20.555,71.862 -31.241,107.899l-32.222,0.089l1.476,-2.707l6.003,-12.961l8.874,-17.846l6.96,-14.589l2.966,-7.597l7.615,-15.703l6.215,-12.144l6.748,-15.406l3.48,-7.295l7.615,-15.703l3.782,-7.809l0.004,-1.381l-0.503,-10.327l-0.715,-11.144l-0.738,-6.199l0.011,-10.025l0.561,-9.587l2.462,-17.924l3.535,-8.761l6.737,-5.381l12.749,5.186l1.974,9.001l-0.164,6.361l-1.04,9.421l-3.738,16.367l-5.774,17.477l-6.355,13.561l-0.004,1.381l2.411,15.715l4.228,22.432l3.435,17.7l5.044,22.22l6.479,18.798l5.588,8.934l10.98,5.646l9.349,-1.193l8.939,-6.969l3.715,-11.423l1.125,-9.37l2.797,0.145l3.014,-0.42l0.298,0.867l-1.434,18.529l-3.558,13.706l-7.329,11.49l-11.434,6.31l-16.084,-0.689l-7.204,-4.811l-7.519,-9.377l-6.02,-17.029l-5.044,-22.22l-3.344,-19.031l-3.077,-19.681l-2.411,-15.715l-0.212,-0.816Z" style="fill:#fccf23;fill-rule:nonzero;"/><path d="M570.365,1363.913l-2.445,-0.745c-10.736,36.123 -21.12,71.646 -31.291,107.985l2.495,0.659l0.095,-2.712l-32.222,0.089l-0.095,2.712l2.959,1.047l0.961,-3.009l6.351,-12.18l8.223,-18.113l6.96,-14.589l3.782,-7.809l7.312,-15.189l5.701,-12.447l7.262,-15.104l3.53,-7.38l11.346,-23.427l-0.298,-0.867l0.443,-1.931l0.302,-0.514l-0.805,-9.813l-1.229,-11.446l0.078,-6.411l-0.342,-9.425l0.302,-0.514l0.309,-9.158l2.075,-17.46l3.268,-8.111l5.265,-4.055l2.197,-0.208l6.992,3.994l2.115,7.585l0.229,4.516l-0.307,1.895l-0.823,8.856l-3.789,16.453l-6.288,17.175l-5.489,13.263l-0.302,0.514l-0.357,1.981l0.212,0.816l2.713,15.2l3.411,22.644l3.435,17.7l5.13,22.271l6.908,19.049l6.314,10.053l12.744,6.567l2.797,0.145l7.832,-1.162l9.896,-8.598l4.582,-11.72l1.427,-9.885l-3.312,-0.447l0.722,2.5l0.514,0.302l1.331,0.09l1.467,0.055l1.633,-0.424l0.145,-2.797l-3.014,0.42l0.212,0.816l3.1,-0.369l-3.1,0.369l-0.141,1.416l-0.855,16.563l-3.906,12.925l-6.16,10.678l-9.963,4.984l-6.552,1.338l-8.201,-1.937l-6.393,-3.642l-6.49,-8.772l-6.236,-16.464l-5.044,-22.22l-3.43,-19.081l-2.78,-18.814l-2.108,-16.229l-0.883,-3.402l-2.797,-0.145l-1.683,0.51l-0.392,1.845l2.445,0.745l-0.145,2.797l0.867,-0.298l-0.722,-2.5l-2.5,0.722l-0.302,0.514l3.014,-0.42l-2.712,-0.095l2.623,16.531l2.528,19.243l3.294,19.116l5.342,23.087l6.484,17.417l7.781,10.108l8.621,4.951l9.885,1.427l7.53,-0.648l12.603,-7.122l7.984,-12.604l3.558,-13.706l1.596,-17.626l-0.671,-2.585l-0.208,-2.197l-2.197,0.208l-1.931,-0.443l-0.816,0.212l-0.514,-0.302l-0.867,0.298l-1.416,-0.141l-2.283,0.157l-0.659,2.495l-1.075,9.285l-3.675,10.178l-6.953,5.945l-5.685,1.041l-2.712,-0.095l-9.437,-4.739l-5.074,-8.632l-6.182,-17.931l-5.13,-22.271l-3.349,-17.65l-3.799,-22.181l-2.925,-16.017l-2.5,0.722l2.797,0.145l0.004,-1.381l-2.797,-0.145l3.009,0.961l5.489,-13.263l6.591,-17.689l4.091,-16.967l0.525,-9.723l0.443,-1.931l0.023,-4.945l-3.089,-9.656l-11.49,-7.329l-3.916,0.581l-8.772,6.49l-3.575,10.006l-2.815,18.524l-0.258,9.073l-0.217,0.565l0.205,9.46l0.436,6.713l0.715,11.144l1.456,10.08l2.147,-0.122l-2.445,-0.745l-0.055,1.467l2.495,0.659l-2.143,-1.259l-4.135,8.409l-7.262,15.104l-3.832,7.895l-6.96,14.589l-5.701,12.447l-7.564,15.618l-3.48,7.295l-7.262,15.104l-8.274,18.199l-6.3,12.094l-0.961,3.009l-1.702,4.073l4.214,0.286l31.708,-0.391l2.147,-0.122l0.957,-1.628c10.172,-36.339 20.555,-71.862 30.777,-108.287l-2.495,-0.659l-0.145,2.797l0.145,-2.797Z" style="fill:#fccf23;fill-rule:nonzero;"/></g></g><g><clipPath id="_clip2"><path d="M2475.639,1751.595l-447.484,-770.902l-789.097,1.283l-788.669,1.534l-444.227,772.761l446.92,770.686l788.633,-1.671l789.747,-1.016l444.177,-772.675Z" clip-rule="nonzero"/></clipPath><g clip-path="url(#_clip2)"><path d="M401.168,1740.193c10.025,0.011 16.593,2.372 22.684,6.528l13.432,12.852c7.059,7.608 14.276,17.499 24.647,25.554l18.784,10.809l24.759,4.173c15.57,0.387 29.232,-4.614 39.037,-11.881c7.553,-5.593 14.042,-11.926 18.848,-17.749c8.051,-8.99 14.03,-17.006 21.281,-22.085l10.617,-6.098l13.784,-2.853c9.975,0.097 16.241,2.972 22.417,7.178l13.397,12.716c7.009,7.694 14.276,17.499 25.111,25.942l19.223,10.259l23.893,4.471c15.786,-0.178 29.498,-5.264 39.339,-12.395c8.118,-5.376 13.654,-11.462 18.813,-17.885c7.698,-8.39 14.58,-16.568 21.281,-22.085l10.653,-5.962l13.482,-2.339c10.539,0.313 16.508,2.322 22.633,6.614l13.397,12.716c7.145,7.658 14.276,17.499 25.247,25.907l18.784,10.809l24.195,3.957c15.922,-0.213 29.498,-5.264 39.39,-12.481c7.765,-4.776 13.74,-11.412 19.06,-16.933c7.4,-9.257 14.332,-17.521 20.767,-22.387l10.617,-6.098l14.248,-2.465c10.025,0.011 15.777,2.584 21.817,6.826l13.785,12.252c7.271,8.424 14.79,17.801 25.161,25.856l18.784,10.809l24.331,3.922c15.998,0.639 29.146,-4.664 39.551,-11.578c7.467,-5.643 13.14,-11.764 18.763,-17.8c8.051,-8.99 14.03,-17.006 21.281,-22.085l10.103,-6.4l14.082,-1.987c9.975,0.097 16.457,2.408 22.633,6.614l13.397,12.716c7.059,7.608 14.276,17.499 25.197,25.992l18.27,10.507l24.759,4.173c15.872,-0.127 29.498,-5.264 39.39,-12.481c7.251,-5.078 13.69,-11.326 18.546,-17.235c7.915,-8.955 14.796,-17.133 21.195,-22.135l11.005,-6.562l13.431,-2.253c9.975,0.097 16.206,2.836 22.633,6.614l13.483,12.767c7.059,7.608 14.276,17.499 25.161,25.856l18.784,10.809l24.195,3.957c15.62,0.301 29.196,-4.75 39.087,-11.966c8.067,-5.291 13.74,-11.412 18.848,-17.749c8,-8.904 14.544,-16.704 21.281,-22.085l10.617,-6.098l14.031,-1.901c10.242,-0.554 15.994,2.02 22.119,6.312l13.397,12.716c7.059,7.608 14.629,16.899 25.161,25.856l19.172,10.345l23.893,4.471c16.351,0.039 29.498,-5.264 39.904,-12.178c7.603,-5.678 13.14,-11.764 18.763,-17.8c7.748,-8.476 14.116,-16.956 20.767,-22.387l10.617,-6.098l14.082,-1.987c9.975,0.097 16.457,2.408 22.633,6.614l13.483,12.767c7.059,7.608 14.276,17.499 25.161,25.856l18.27,10.507l24.709,4.259c15.872,-0.127 29.498,-5.264 39.39,-12.481c7.251,-5.078 13.69,-11.326 18.546,-17.235c8,-8.904 14.847,-17.218 21.281,-22.085l10.92,-6.612l13.431,-2.253l0.119,-30.025c-15.922,0.213 -29.498,5.264 -39.39,12.481c-7.765,4.776 -13.74,11.412 -19.06,16.933c-7.451,9.343 -14.332,17.521 -20.681,22.438l-11.005,6.562l-13.946,1.951c-10.025,-0.011 -15.691,-2.534 -22.17,-6.226l-13.483,-12.767c-6.707,-8.208 -14.19,-17.449 -25.111,-25.942l-18.835,-10.723l-24.195,-3.957c-16.386,-0.175 -29.146,4.664 -39.853,12.093c-7.301,5.164 -13.226,11.714 -18.546,17.235c-8.051,8.99 -14.03,17.006 -20.767,22.387l-10.617,6.098l-14.298,2.551c-10.025,-0.011 -16.241,-2.972 -21.903,-6.876l-13.911,-13.018c-7.059,-7.608 -14.578,-16.985 -24.647,-25.554l-19.172,-10.345l-24.709,-4.259c-15.534,-0.251 -29.196,4.75 -39.087,11.966c-7.467,5.643 -13.604,11.376 -18.763,17.8c-7.698,8.39 -14.63,16.654 -21.281,22.085l-10.703,6.048l-13.431,2.253c-10.025,-0.011 -16.508,-2.322 -22.633,-6.614l-13.397,-12.716c-7.145,-7.658 -14.276,-17.499 -25.247,-25.907l-18.784,-10.809l-24.245,-3.871c-15.872,0.127 -29.448,5.178 -39.339,12.395c-7.765,4.776 -13.74,11.412 -18.546,17.235c-7.965,9.04 -14.847,17.218 -21.281,22.085l-10.617,6.098l-14.248,2.465c-10.025,-0.011 -15.691,-2.534 -22.255,-6.276l-13.397,-12.716c-6.707,-8.208 -14.276,-17.499 -25.111,-25.942l-18.92,-10.773l-24.109,-3.907c-15.57,-0.387 -29.232,4.614 -39.037,11.881c-8.118,5.376 -13.74,11.412 -19.363,17.447c-7.536,9.292 -14.03,17.006 -20.767,22.387l-10.617,6.098l-14.384,2.501c-10.025,-0.011 -15.641,-2.62 -21.817,-6.826l-13.911,-13.018c-7.145,-7.658 -14.276,-17.499 -24.733,-25.605l-18.784,-10.809l-24.195,-3.957c-16.436,-0.089 -29.498,5.264 -39.904,12.178c-7.553,5.593 -13.69,11.326 -18.546,17.235c-7.915,8.955 -14.332,17.521 -21.583,22.599l-10.617,6.098l-13.431,2.253c-10.025,-0.011 -16.593,-2.372 -22.633,-6.614l-13.533,-12.681c-7.009,-7.694 -14.276,-17.499 -25.111,-25.942l-18.27,-10.507l-24.759,-4.173c-15.57,-0.387 -29.232,4.614 -39.339,12.395c-7.301,5.164 -13.438,10.897 -18.546,17.235c-8.051,8.99 -14.544,16.704 -21.281,22.085l-10.617,6.098l-13.734,2.768c-10.625,-0.364 -16.291,-2.887 -22.417,-7.178l-13.447,-12.63c-7.059,-7.608 -14.578,-16.985 -25.111,-25.942l-19.223,-10.259l-23.893,-4.471c-15.786,0.178 -29.498,5.264 -39.339,12.395c-8.032,5.427 -13.654,11.462 -19.327,17.583c-7.184,8.692 -14.066,16.87 -20.716,22.301l-10.703,6.048l-13.996,2.037c-9.975,-0.097 -15.943,-2.105 -22.119,-6.312l-13.483,-12.767c-7.059,-7.608 -14.19,-17.449 -25.161,-25.856l-18.784,-10.809l-24.195,-3.957l-0.119,30.025Z" style="fill:#fccf23;fill-rule:nonzero;"/><path d="M2474.769,1272.52l-0.285,167.256c43.664,0.063 84.574,8.539 121.404,23.958c56.445,23.833 103.895,63.364 137.66,112.841c33.462,49.991 53.627,109.463 53.754,173.993c-0.013,43.578 -8.489,84.488 -24.26,121.919c-23.616,55.881 -63.012,103.295 -112.841,137.66c-49.991,33.462 -109.161,53.113 -174.205,52.938c-43.064,0.29 -83.974,-8.187 -121.354,-24.043c-55.931,-23.53 -103.86,-63.228 -137.71,-112.755c-33.462,-49.991 -53.063,-109.246 -53.452,-174.507c-0.29,-43.064 8.237,-84.06 24.608,-121.137c22.966,-56.148 62.714,-104.162 112.705,-137.625c49.527,-33.85 109.297,-53.148 173.691,-53.24l0.285,-167.256c-66.163,0.551 -129.383,13.555 -186.429,38.029c-85.972,36.415 -159.001,97.503 -210.169,173.974c-51.682,76.169 -81.558,169.189 -81.735,267.787c0.037,65.861 13.943,128.919 38.114,186.479c36.718,85.458 97.719,158.436 173.888,210.118c76.169,51.682 169.189,81.558 268.139,81.135c65.861,-0.037 128.567,-13.343 185.915,-38.331c86.058,-36.365 158.734,-96.852 210.416,-173.022c51.082,-76.522 81.473,-169.24 81.135,-268.139c-0.037,-65.861 -13.943,-128.919 -38.029,-186.429c-36.451,-86.108 -97.24,-158.27 -173.46,-209.866c-76.683,-51.984 -169.189,-81.558 -267.787,-81.735Z" style="fill:#fccf23;fill-rule:nonzero;"/><path d="M6.492,2234.89l0.285,-167.256c-43.578,-0.013 -84.488,-8.489 -121.354,-24.043c-56.445,-23.833 -103.86,-63.228 -137.71,-112.755c-33.462,-49.991 -53.577,-109.548 -53.754,-173.993c0.013,-43.578 8.539,-84.574 24.31,-122.004c23.566,-55.795 63.012,-103.295 112.791,-137.574c50.041,-33.548 109.211,-53.199 174.205,-52.938c43.064,-0.29 83.974,8.187 121.49,24.008c55.795,23.566 103.81,63.314 137.574,112.791c33.462,49.991 53.113,109.161 53.452,174.507c0.29,43.064 -8.187,83.974 -24.472,121.102c-23.016,56.233 -62.8,104.112 -112.841,137.66c-49.477,33.765 -109.161,53.113 -173.691,53.24l-0.285,167.256c66.163,-0.551 129.519,-13.591 186.479,-38.114c86.058,-36.365 159.036,-97.367 210.118,-173.888c51.682,-76.169 81.558,-169.189 81.735,-267.787c-0.037,-65.861 -13.858,-128.869 -38.029,-186.429c-36.667,-85.544 -97.755,-158.572 -173.974,-210.169c-76.169,-51.682 -169.189,-81.558 -268.089,-81.221c-65.861,0.037 -128.567,13.343 -185.915,38.331c-85.972,36.415 -158.699,96.988 -210.381,173.158c-51.168,76.471 -81.558,169.189 -81.221,268.089c0.037,65.861 13.943,128.919 38.029,186.429c36.501,86.022 97.291,158.184 173.46,209.866c76.683,51.984 169.189,81.558 267.787,81.735Z" style="fill:#fccf23;fill-rule:nonzero;"/><path d="M1963.754,2449.184l-8.212,8.088l8.174,8.263l11.356,0.101l0.039,-16.351l-11.356,-0.101Zm11.155,-10.74l0.041,-23.614l11.356,0.101l0.11,60.831l-22.797,-0.253c-12.223,0.196 -19.282,-7.411 -19.483,-18.253c0.152,-11.441 6.943,-18.289 19.115,-18.4l11.658,-0.413Z" style="fill:#fccf23;fill-rule:nonzero;"/><path d="M1932.342,2414.972l0.11,60.831l-11.356,-0.101l0.117,-22.762l-24.128,-0.343l-0.469,23.362l-11.441,-0.152l0.49,-60.478l10.842,-0.201l0.077,27.142l24.43,-0.171l-0.026,-27.227l11.356,0.101Z" style="fill:#fccf23;fill-rule:nonzero;"/><path d="M1843.945,2466.324l12.246,-5.141l4.817,-15.849l-4.608,-15.507l-12.235,-4.884l-12.246,5.141l-5.417,15.496l5.208,15.86l12.235,4.884Zm-0.313,10.539c-10.025,-0.011 -18.948,-4.448 -24.184,-13.982l-4.301,-17.402c-0.056,-13.639 6.014,-22.986 14.429,-27.495l14.086,-3.368c10.842,-0.201 19.165,3.883 25.051,13.684l3.651,17.135c0.056,13.639 -5.802,23.802 -13.829,27.848l-14.903,3.58Z" style="fill:#fccf23;fill-rule:nonzero;"/><path d="M1810.053,2465.663l-0.313,10.539l-44.994,-0.153l0.313,-10.539l16.951,0.391l-0.121,-50.806l11.356,0.101l-0.443,50.589l17.253,-0.123Z" style="fill:#fccf23;fill-rule:nonzero;"/><path d="M1730.537,2466.449l12.246,-5.141l4.817,-15.849l-4.91,-14.993l-11.932,-5.398l-12.246,5.141l-5.417,15.496l5.208,15.86l12.235,4.884Zm-0.313,10.539c-10.025,-0.011 -18.948,-4.448 -24.184,-13.982l-4.301,-17.402c-0.056,-13.639 6.099,-22.936 14.429,-27.495l14.086,-3.368c10.842,-0.201 19.165,3.883 25.051,13.684l3.737,17.186c-0.03,13.589 -5.887,23.752 -13.915,27.798l-14.903,3.58Z" style="fill:#fccf23;fill-rule:nonzero;"/><path d="M1655.882,2476.33l-11.356,-0.101l-0.06,-60.917l11.956,0.454l22.067,39.95l0.13,-40.05l11.356,0.101l0.413,60.317l-12.308,0.146l-22.067,-39.95l-0.13,40.05Z" style="fill:#fccf23;fill-rule:nonzero;"/><path d="M517.483,1058.304l8.263,-8.174l-8.39,-7.698l-11.492,-0.066l0.263,15.836l11.356,0.101Zm-11.155,10.74l-0.041,23.614l-11.356,-0.101l-0.06,-60.917l22.797,0.253c12.172,-0.111 19.317,7.548 19.518,18.389c-0.101,11.356 -6.978,18.153 -19.201,18.349l-11.658,0.413Z" style="fill:#fccf23;fill-rule:nonzero;"/><path d="M548.724,1092.553l-0.06,-60.917l11.441,0.152l-0.253,22.797l24.178,0.257l0.505,-23.226l11.406,0.016l-0.54,60.564l-10.842,0.201l-0.026,-27.227l-24.48,0.257l0.026,27.227l-11.356,-0.101Z" style="fill:#fccf23;fill-rule:nonzero;"/><path d="M637.146,1041.296l-12.246,5.141l-4.767,15.763l4.946,15.129l11.847,5.348l12.331,-5.091l5.331,-15.546l-5.208,-15.86l-12.235,-4.884Zm0.313,-10.539c10.025,0.011 18.948,4.448 24.234,13.896l4.251,17.488c0.056,13.639 -6.014,22.986 -14.343,27.546l-14.121,3.231c-10.892,0.287 -19.215,-3.798 -25.101,-13.599l-3.601,-17.221c-0.106,-13.553 5.802,-23.802 14.081,-28.277l14.6,-3.065Z" style="fill:#fccf23;fill-rule:nonzero;"/><path d="M670.934,1041.898l0.313,-10.539l45.045,0.067l-0.364,10.625l-16.9,-0.477l0.071,50.891l-11.305,-0.187l0.393,-50.504l-17.253,0.123Z" style="fill:#fccf23;fill-rule:nonzero;"/><path d="M750.462,1041.071l-12.246,5.141l-4.767,15.763l4.643,15.643l12.149,4.834l12.331,-5.091l5.331,-15.546l-5.208,-15.86l-12.235,-4.884Zm0.313,-10.539c10.025,0.011 18.948,4.448 24.234,13.896l4.251,17.488c0.056,13.639 -6.014,22.986 -14.343,27.546l-14.121,3.231c-10.892,0.287 -19.215,-3.798 -25.101,-13.599l-3.601,-17.221c-0.106,-13.553 5.802,-23.802 13.779,-27.762l14.903,-3.58Z" style="fill:#fccf23;fill-rule:nonzero;"/><path d="M825.024,1031.193l11.356,0.101l0.11,60.831l-12.223,0.196l-21.851,-40.515l-0.382,40.478l-11.406,-0.016l-0.06,-60.917l12.258,-0.06l22.118,39.865l0.08,-39.964Z" style="fill:#fccf23;fill-rule:nonzero;"/></g></g></svg>