<?xml version="1.0" encoding="UTF-8" standalone="no"?><!DOCTYPE svg PUBLIC "-//W3C//DTD SVG 1.1//EN" "http://www.w3.org/Graphics/SVG/1.1/DTD/svg11.dtd"><svg width="100%" height="100%" viewBox="0 0 2481 3508" version="1.1" xmlns="http://www.w3.org/2000/svg" xmlns:xlink="http://www.w3.org/1999/xlink" xml:space="preserve" xmlns:serif="http://www.serif.com/" style="fill-rule:evenodd;clip-rule:evenodd;stroke-linejoin:round;stroke-miterlimit:2;"><rect id="Artboard3" x="0" y="0" width="2480.317" height="3507.875" style="fill:none;"/><clipPath id="_clip1"><rect x="0" y="0" width="2480.317" height="3507.875"/></clipPath><g clip-path="url(#_clip1)"><path d="M439.794,958.589l-439.794,779.149l454.57,771.162l1585.953,-15.076l439.794,-779.748l-454.67,-770.562l-1585.853,15.076Z" style="fill:url(#_Linear2);fill-rule:nonzero;"/><path d="M1999.988,1701.946l-537.637,5.092l-2.496,-1.897l-409.642,-230.929l-21.765,0.2l-11.082,18.77l2.097,218.05l-538.735,5.092c-7.288,-169.927 -104.033,-317.989 -244.308,-396.962l-0.1,-0l-82.567,145.367c94.448,53.913 158.346,154.851 159.544,270.066c1.098,115.814 -60.802,217.95 -154.352,273.061l85.463,144.268c138.677,-82.268 232.626,-230.829 236.52,-402.154l538.835,-5.092l2.097,218.549l10.783,18.67l22.364,-0.2l405.249,-238.717l2.396,-2.596l537.637,-5.092c7.089,171.225 103.933,317.989 243.509,397.661l82.767,-145.866l-0,-0.1c-94.648,-53.913 -158.446,-154.252 -159.544,-270.066c-1.098,-115.215 60.802,-217.351 154.352,-273.061l-0,-0.1l-85.463,-143.669c-138.078,82.368 -232.027,231.528 -235.921,401.655Zm-948.776,-188.497l373.9,210.762l-369.806,218.449l-4.093,-429.211Z" style="fill:url(#_Linear3);fill-rule:nonzero;"/><g><clipPath id="_clip4"><path d="M439.794,959.558l-439.794,779.149l454.57,771.162l1585.953,-15.076l439.794,-779.748l-454.67,-770.562l-1585.853,15.076Z" clip-rule="nonzero"/></clipPath><g clip-path="url(#_clip4)"><path d="M1967.62,2405.975l-7.987,8.187l-6.29,-6.789l-1.198,8.686l5.092,15.575l11.881,5.491l12.48,-5.791l4.792,-15.575l-5.092,-15.475l-12.58,-4.892l-9.285,2.596l8.187,7.987Zm-23.163,-7.288l-6.29,-5.491l7.987,-8.187l5.691,5.491l16.773,-5.691c10.583,-0.1 19.369,4.193 25.06,13.379l4.493,17.472l-4.093,17.472c-5.591,9.984 -14.277,13.878 -24.86,13.978l-14.377,-2.995c-8.087,-4.293 -14.377,-14.177 -14.577,-27.955l4.193,-17.472Z" style="fill:#302f87;fill-rule:nonzero;"/><path d="M1883.725,2447.468l-0.399,-38.039c-0.1,-15.575 8.486,-23.762 22.863,-23.862c13.678,-0.1 22.464,7.887 22.664,23.462l0.3,38.039l-11.182,0.1l-0.399,-38.039c0,-8.686 -3.794,-13.079 -11.282,-12.979c-8.087,0.1 -11.781,4.493 -11.781,13.179l0.399,38.039l-11.182,0.1Z" style="fill:#302f87;fill-rule:nonzero;"/><path d="M1849.63,2432.762l5.99,-21.266l-12.38,0.1l6.39,21.166Zm-14.776,-45.926l4.493,14.277l19.968,-0.2l4.193,-14.377l11.881,-0.1l-20.068,61.202l-11.182,0.1l-21.166,-60.802l11.881,-0.1Z" style="fill:#302f87;fill-rule:nonzero;"/><path d="M1791.792,2424.046l-6.789,6.889l6.889,6.789l11.182,-0.1l-0.1,-13.678l-11.182,0.1Zm-6.989,-9.285l-17.672,-27.256l13.079,-0.1l16.474,25.958l6.19,0l-0.3,-26.158l11.282,-0.1l0.599,61.002l-22.464,0.2c-11.781,0.1 -18.77,-6.689 -18.87,-17.272l11.681,-16.274Z" style="fill:#302f87;fill-rule:nonzero;"/><path d="M1758.416,2448.656l-11.182,0.1l-0.3,-22.464l-20.866,22.664l-13.778,0.1l24.66,-27.656l-27.057,-33.346l14.277,-0.1l22.763,29.053l-0.3,-29.253l11.182,-0.2l0.599,61.102Z" style="fill:#302f87;fill-rule:nonzero;"/><path d="M504.749,1022.696l-5.99,21.266l12.38,-0.1l-6.39,-21.166Zm14.776,45.926l-4.493,-14.277l-19.968,0.2l-4.193,14.377l-11.881,0.1l19.968,-61.202l11.282,-0.1l21.066,60.802l-11.781,0.1Z" style="fill:#53c6ea;fill-rule:nonzero;"/><path d="M574.408,1007.022l11.182,-0.1l0.599,61.002l-11.881,0.1l-22.763,-40.235l0.399,40.535l-11.282,0.1l-0.599,-61.102l11.881,-0.1l22.863,40.235l-0.399,-40.435Z" style="fill:#53c6ea;fill-rule:nonzero;"/><path d="M597.131,1017.275l-0.1,-10.583l45.427,-0.499l0.1,10.683l-17.372,0.1l0.399,50.519l-11.182,0.1l-0.499,-50.519l-16.773,0.2Z" style="fill:#53c6ea;fill-rule:nonzero;"/><path d="M654.439,1067.065l11.282,-0.111l-0.599,-60.991l-11.282,0.111l0.599,60.991Z" style="fill:#53c6ea;"/><path d="M708.432,1046.428l7.987,-8.187l6.29,6.789l1.198,-8.686l-5.192,-15.575l-11.881,-5.491l-12.38,5.691l-4.792,15.675l5.092,15.475l12.48,4.892l9.385,-2.596l-8.187,-7.987Zm23.063,7.288l6.29,5.491l-7.987,8.187l-5.691,-5.591l-16.773,5.791c-10.583,0.1 -19.269,-4.193 -25.06,-13.478l-4.493,-17.372l4.193,-17.472c5.491,-10.084 14.177,-13.878 24.86,-13.978l14.277,2.995c8.187,4.293 14.477,14.177 14.577,27.855l-4.193,17.572Z" style="fill:#53c6ea;fill-rule:nonzero;"/><path d="M791.758,1004.945l0.399,37.939c0.1,15.575 -8.586,23.762 -22.863,23.962c-13.678,0.1 -22.564,-7.887 -22.664,-23.462l-0.399,-38.039l11.182,-0.1l0.399,38.039c0.1,8.686 3.894,12.979 11.382,12.979c8.087,-0.1 11.781,-4.493 11.681,-13.279l-0.3,-37.939l11.182,-0.1Z" style="fill:#53c6ea;fill-rule:nonzero;"/><path d="M825.205,1019.651l-5.99,21.266l12.38,-0.2l-6.39,-21.066Zm14.776,45.926l-4.493,-14.277l-19.968,0.2l-4.193,14.377l-11.881,0.1l19.968,-61.202l11.282,-0.1l21.066,60.802l-11.781,0.1Z" style="fill:#53c6ea;fill-rule:nonzero;"/><path d="M883.122,1028.377l6.789,-6.889l-6.889,-6.789l-11.282,0.1l0.2,13.678l11.182,-0.1Zm6.889,9.285l17.672,27.256l-13.079,0.1l-16.374,-25.958l-6.19,0l0.2,26.158l-11.182,0.1l-0.599,-61.002l22.464,-0.2c11.781,-0.2 18.67,6.589 18.77,17.172l-11.681,16.374Z" style="fill:#53c6ea;fill-rule:nonzero;"/><path d="M916.498,1003.757l11.182,-0.1l0.2,22.364l20.966,-22.564l13.778,-0.1l-24.66,27.556l27.057,33.446l-14.377,0.1l-22.664,-29.053l0.3,29.253l-11.182,0.1l-0.599,-61.002Z" style="fill:#53c6ea;fill-rule:nonzero;"/></g></g><g><clipPath id="_clip5"><path d="M439.794,958.734l-439.794,779.149l454.57,771.261l1585.953,-15.076l439.794,-779.848l-454.67,-770.662l-1585.853,15.176Z" clip-rule="nonzero"/></clipPath><g clip-path="url(#_clip5)"><path d="M1929.222,1293.497l9.585,25.459l-24.86,11.482l-6.39,-18.071c-4.892,8.786 -8.486,19.369 -11.482,31.949c-2.396,11.781 -3.594,23.063 -3.494,33.646c0.1,10.583 2.097,18.67 5.292,24.261l14.976,7.887c7.488,0 14.277,-4.493 20.467,-13.878c6.09,-9.385 10.383,-20.667 13.379,-33.746c2.995,-13.079 4.692,-25.559 4.593,-36.841c-0.1,-10.583 -1.997,-18.67 -5.192,-24.261l-14.976,-7.887l-1.897,0Zm-59.504,29.852c5.391,-18.171 13.978,-32.548 25.06,-42.632l-6.989,-19.868l24.86,-10.783l6.29,16.673l13.778,-1.298c15.475,-0.2 27.456,4.692 36.242,15.875c8.786,10.483 13.978,25.359 14.177,44.029c0.1,18.071 -2.796,35.543 -8.287,53.015c-5.391,17.572 -13.379,31.949 -24.461,43.231c-10.483,11.382 -24.161,17.073 -39.137,17.172c-15.575,0.2 -27.456,-5.292 -36.242,-15.775c-9.485,-11.182 -13.978,-25.459 -14.177,-44.129c-0.1,-19.269 2.796,-38.039 8.886,-55.511" style="fill:#302f87;fill-rule:nonzero;"/><path d="M1925.947,2145.808l-9.585,-25.459l24.76,-11.482l6.39,18.071c4.892,-8.786 8.586,-19.469 11.581,-31.949c2.396,-11.781 3.494,-23.063 3.395,-33.646c-0.1,-10.583 -2.097,-18.67 -5.192,-24.261l-15.076,-7.887c-7.388,0 -14.277,4.493 -20.367,13.878c-6.19,9.385 -10.383,20.667 -13.379,33.746c-2.995,13.079 -4.792,25.559 -4.692,36.841c0.1,10.583 2.097,18.67 5.292,24.161l14.976,7.987l1.897,0Zm59.504,-29.852c-5.391,18.171 -13.978,32.548 -25.16,42.632l7.089,19.868l-24.86,10.783l-6.39,-16.773l-13.678,1.398c-15.575,0.1 -27.456,-4.692 -36.242,-15.875c-8.886,-10.483 -13.978,-25.359 -14.177,-44.029c-0.2,-18.071 2.796,-35.543 8.287,-53.115c5.391,-17.472 13.379,-31.849 24.461,-43.231c10.483,-11.282 24.161,-16.973 39.037,-17.172c15.575,-0.1 27.456,5.391 36.342,15.875c9.385,11.082 13.878,25.459 14.077,44.129c0.2,19.269 -2.696,38.039 -8.786,55.511" style="fill:#302f87;fill-rule:nonzero;"/><path d="M551.335,2158.917l-9.585,-25.459l24.76,-11.482l6.39,18.071c4.892,-8.786 8.586,-19.469 11.581,-31.949c2.396,-11.781 3.494,-23.063 3.395,-33.646c-0.1,-10.583 -2.097,-18.67 -5.192,-24.261l-15.076,-7.887c-7.388,0 -14.277,4.493 -20.367,13.878c-6.19,9.385 -10.383,20.667 -13.379,33.746c-2.995,13.079 -4.792,25.559 -4.692,36.841c0.1,10.583 2.097,18.67 5.292,24.161l14.976,7.987l1.897,0Zm59.504,-29.852c-5.391,18.071 -13.978,32.548 -25.16,42.632l7.089,19.868l-24.86,10.783l-6.39,-16.773l-13.678,1.398c-15.575,0.1 -27.456,-4.692 -36.242,-15.875c-8.886,-10.483 -13.978,-25.359 -14.177,-44.029c-0.2,-18.071 2.796,-35.543 8.187,-53.115c5.491,-17.472 13.478,-31.849 24.561,-43.231c10.483,-11.282 24.161,-16.973 39.037,-17.172c15.575,-0.1 27.456,5.391 36.342,15.875c8.786,11.182 13.878,25.459 14.077,44.129c0.2,19.269 -2.696,38.039 -8.786,55.511" style="fill:#53c6ea;fill-rule:nonzero;"/><path d="M513.075,1977.111l105.331,-0.94l-0.199,-22.306l-105.331,0.94l0.199,22.306Z" style="fill:#53c6ea;"/><clipPath id="_clip6"><path d="M439.794,958.734l-439.794,779.149l454.57,771.261l1585.953,-15.076l439.794,-779.848l-454.67,-770.662l-1585.853,15.176Z" clip-rule="nonzero"/></clipPath><g clip-path="url(#_clip6)"><path d="M554.529,1306.615l9.585,25.459l-24.86,11.482l-6.39,-18.071c-4.892,8.786 -8.486,19.369 -11.482,31.949c-2.396,11.781 -3.594,23.063 -3.494,33.646c0.1,10.583 2.097,18.67 5.292,24.261l14.976,7.887c7.488,0 14.277,-4.493 20.467,-13.878c6.09,-9.385 10.383,-20.667 13.379,-33.746c2.995,-13.079 4.692,-25.559 4.593,-36.841c-0.1,-10.583 -1.997,-18.67 -5.192,-24.261l-14.976,-7.887l-1.897,0Zm-59.504,29.852c5.391,-18.171 13.978,-32.548 25.06,-42.632l-6.989,-19.868l24.86,-10.783l6.29,16.673l13.778,-1.298c15.475,-0.2 27.456,4.692 36.242,15.875c8.786,10.483 13.978,25.359 14.177,44.029c0.1,18.071 -2.796,35.543 -8.287,53.015c-5.391,17.572 -13.379,31.949 -24.461,43.231c-10.483,11.382 -24.161,17.073 -39.137,17.172c-15.575,0.2 -27.456,-5.292 -36.242,-15.775c-9.485,-11.182 -13.978,-25.459 -14.177,-44.129c-0.1,-19.269 2.796,-38.039 8.886,-55.511" style="fill:#53c6ea;fill-rule:nonzero;"/></g><path d="M487.467,1512.023l105.331,-0.936l-0.199,-22.402l-105.331,0.936l0.199,22.402Z" style="fill:#53c6ea;"/></g></g></g><defs><linearGradient id="_Linear2" x1="0" y1="0" x2="1" y2="0" gradientUnits="userSpaceOnUse" gradientTransform="matrix(-2480.43268,23.66176,-23.66176,-2480.43268,2480.344672,1714.363785)"><stop offset="0" style="stop-color:#53c6ea;stop-opacity:1"/><stop offset="0.3" style="stop-color:#53c6ea;stop-opacity:1"/><stop offset="1" style="stop-color:#302f87;stop-opacity:1"/></linearGradient><linearGradient id="_Linear3" x1="0" y1="0" x2="1" y2="0" gradientUnits="userSpaceOnUse" gradientTransform="matrix(-3441.503662,32.829766,-32.829766,-3441.503662,2961.094209,1709.831224)"><stop offset="0" style="stop-color:#302f87;stop-opacity:1"/><stop offset="0.44" style="stop-color:#302f87;stop-opacity:1"/><stop offset="0.61" style="stop-color:#51b9e0;stop-opacity:1"/><stop offset="0.72" style="stop-color:#53c6ea;stop-opacity:1"/><stop offset="1" style="stop-color:#53c6ea;stop-opacity:1"/></linearGradient></defs></svg>